<?xml version="1.0" encoding="utf-8" standalone="no"?>
<!DOCTYPE svg PUBLIC "-//W3C//DTD SVG 1.1//EN"
  "http://www.w3.org/Graphics/SVG/1.1/DTD/svg11.dtd">
<svg xmlns:xlink="http://www.w3.org/1999/xlink" width="864pt" height="576pt" viewBox="0 0 864 576" xmlns="http://www.w3.org/2000/svg" version="1.1">
 <metadata>
  <rdf:RDF xmlns:dc="http://purl.org/dc/elements/1.1/" xmlns:cc="http://creativecommons.org/ns#" xmlns:rdf="http://www.w3.org/1999/02/22-rdf-syntax-ns#">
   <cc:Work>
    <dc:type rdf:resource="http://purl.org/dc/dcmitype/StillImage"/>
    <dc:date>2024-06-11T08:10:48.108203</dc:date>
    <dc:format>image/svg+xml</dc:format>
    <dc:creator>
     <cc:Agent>
      <dc:title>Matplotlib v3.9.0, https://matplotlib.org/</dc:title>
     </cc:Agent>
    </dc:creator>
   </cc:Work>
  </rdf:RDF>
 </metadata>
 <defs>
  <style type="text/css">*{stroke-linejoin: round; stroke-linecap: butt}</style>
 </defs>
 <g id="figure_1">
  <g id="patch_1">
   <path d="M 0 576 
L 864 576 
L 864 0 
L 0 0 
z
" style="fill: #ffffff"/>
  </g>
  <g id="axes_1">
   <g id="patch_2">
    <path d="M 86.4 512.64 
L 648 512.64 
L 648 69.12 
L 86.4 69.12 
z
" style="fill: #ffffff"/>
   </g>
   <g id="patch_3">
    <path d="M 452.290909 510.149991 
L 622.472727 510.149991 
L 622.472727 442.102491 
L 452.290909 442.102491 
L 452.290909 510.149991 
z
" clip-path="url(#p12dbacc063)" style="fill: none; stroke: #808080; stroke-linejoin: miter"/>
   </g>
   <g id="matplotlib.axis_1">
    <g id="xtick_1">
     <g id="line2d_1">
      <defs>
       <path id="m55d9e96699" d="M 0 0 
L 0 3.5 
" style="stroke: #000000; stroke-width: 0.8"/>
      </defs>
      <g>
       <use xlink:href="#m55d9e96699" x="154.472727" y="512.64" style="stroke: #000000; stroke-width: 0.8"/>
      </g>
     </g>
     <g id="text_1">
      <!-- 25 -->
      <g transform="translate(148.110227 527.238438) scale(0.1 -0.1)">
       <defs>
        <path id="DejaVuSans-32" d="M 1228 531 
L 3431 531 
L 3431 0 
L 469 0 
L 469 531 
Q 828 903 1448 1529 
Q 2069 2156 2228 2338 
Q 2531 2678 2651 2914 
Q 2772 3150 2772 3378 
Q 2772 3750 2511 3984 
Q 2250 4219 1831 4219 
Q 1534 4219 1204 4116 
Q 875 4013 500 3803 
L 500 4441 
Q 881 4594 1212 4672 
Q 1544 4750 1819 4750 
Q 2544 4750 2975 4387 
Q 3406 4025 3406 3419 
Q 3406 3131 3298 2873 
Q 3191 2616 2906 2266 
Q 2828 2175 2409 1742 
Q 1991 1309 1228 531 
z
" transform="scale(0.015625)"/>
        <path id="DejaVuSans-35" d="M 691 4666 
L 3169 4666 
L 3169 4134 
L 1269 4134 
L 1269 2991 
Q 1406 3038 1543 3061 
Q 1681 3084 1819 3084 
Q 2600 3084 3056 2656 
Q 3513 2228 3513 1497 
Q 3513 744 3044 326 
Q 2575 -91 1722 -91 
Q 1428 -91 1123 -41 
Q 819 9 494 109 
L 494 744 
Q 775 591 1075 516 
Q 1375 441 1709 441 
Q 2250 441 2565 725 
Q 2881 1009 2881 1497 
Q 2881 1984 2565 2268 
Q 2250 2553 1709 2553 
Q 1456 2553 1204 2497 
Q 953 2441 691 2322 
L 691 4666 
z
" transform="scale(0.015625)"/>
       </defs>
       <use xlink:href="#DejaVuSans-32"/>
       <use xlink:href="#DejaVuSans-35" x="63.623047"/>
      </g>
     </g>
    </g>
    <g id="xtick_2">
     <g id="line2d_2">
      <g>
       <use xlink:href="#m55d9e96699" x="225.381818" y="512.64" style="stroke: #000000; stroke-width: 0.8"/>
      </g>
     </g>
     <g id="text_2">
      <!-- 50 -->
      <g transform="translate(219.019318 527.238438) scale(0.1 -0.1)">
       <defs>
        <path id="DejaVuSans-30" d="M 2034 4250 
Q 1547 4250 1301 3770 
Q 1056 3291 1056 2328 
Q 1056 1369 1301 889 
Q 1547 409 2034 409 
Q 2525 409 2770 889 
Q 3016 1369 3016 2328 
Q 3016 3291 2770 3770 
Q 2525 4250 2034 4250 
z
M 2034 4750 
Q 2819 4750 3233 4129 
Q 3647 3509 3647 2328 
Q 3647 1150 3233 529 
Q 2819 -91 2034 -91 
Q 1250 -91 836 529 
Q 422 1150 422 2328 
Q 422 3509 836 4129 
Q 1250 4750 2034 4750 
z
" transform="scale(0.015625)"/>
       </defs>
       <use xlink:href="#DejaVuSans-35"/>
       <use xlink:href="#DejaVuSans-30" x="63.623047"/>
      </g>
     </g>
    </g>
    <g id="xtick_3">
     <g id="line2d_3">
      <g>
       <use xlink:href="#m55d9e96699" x="296.290909" y="512.64" style="stroke: #000000; stroke-width: 0.8"/>
      </g>
     </g>
     <g id="text_3">
      <!-- 75 -->
      <g transform="translate(289.928409 527.238438) scale(0.1 -0.1)">
       <defs>
        <path id="DejaVuSans-37" d="M 525 4666 
L 3525 4666 
L 3525 4397 
L 1831 0 
L 1172 0 
L 2766 4134 
L 525 4134 
L 525 4666 
z
" transform="scale(0.015625)"/>
       </defs>
       <use xlink:href="#DejaVuSans-37"/>
       <use xlink:href="#DejaVuSans-35" x="63.623047"/>
      </g>
     </g>
    </g>
    <g id="xtick_4">
     <g id="line2d_4">
      <g>
       <use xlink:href="#m55d9e96699" x="367.2" y="512.64" style="stroke: #000000; stroke-width: 0.8"/>
      </g>
     </g>
     <g id="text_4">
      <!-- 100 -->
      <g transform="translate(357.65625 527.238438) scale(0.1 -0.1)">
       <defs>
        <path id="DejaVuSans-31" d="M 794 531 
L 1825 531 
L 1825 4091 
L 703 3866 
L 703 4441 
L 1819 4666 
L 2450 4666 
L 2450 531 
L 3481 531 
L 3481 0 
L 794 0 
L 794 531 
z
" transform="scale(0.015625)"/>
       </defs>
       <use xlink:href="#DejaVuSans-31"/>
       <use xlink:href="#DejaVuSans-30" x="63.623047"/>
       <use xlink:href="#DejaVuSans-30" x="127.246094"/>
      </g>
     </g>
    </g>
    <g id="xtick_5">
     <g id="line2d_5">
      <g>
       <use xlink:href="#m55d9e96699" x="438.109091" y="512.64" style="stroke: #000000; stroke-width: 0.8"/>
      </g>
     </g>
     <g id="text_5">
      <!-- 125 -->
      <g transform="translate(428.565341 527.238438) scale(0.1 -0.1)">
       <use xlink:href="#DejaVuSans-31"/>
       <use xlink:href="#DejaVuSans-32" x="63.623047"/>
       <use xlink:href="#DejaVuSans-35" x="127.246094"/>
      </g>
     </g>
    </g>
    <g id="xtick_6">
     <g id="line2d_6">
      <g>
       <use xlink:href="#m55d9e96699" x="509.018182" y="512.64" style="stroke: #000000; stroke-width: 0.8"/>
      </g>
     </g>
     <g id="text_6">
      <!-- 150 -->
      <g transform="translate(499.474432 527.238438) scale(0.1 -0.1)">
       <use xlink:href="#DejaVuSans-31"/>
       <use xlink:href="#DejaVuSans-35" x="63.623047"/>
       <use xlink:href="#DejaVuSans-30" x="127.246094"/>
      </g>
     </g>
    </g>
    <g id="xtick_7">
     <g id="line2d_7">
      <g>
       <use xlink:href="#m55d9e96699" x="579.927273" y="512.64" style="stroke: #000000; stroke-width: 0.8"/>
      </g>
     </g>
     <g id="text_7">
      <!-- 175 -->
      <g transform="translate(570.383523 527.238438) scale(0.1 -0.1)">
       <use xlink:href="#DejaVuSans-31"/>
       <use xlink:href="#DejaVuSans-37" x="63.623047"/>
       <use xlink:href="#DejaVuSans-35" x="127.246094"/>
      </g>
     </g>
    </g>
    <g id="text_8">
     <!-- D -->
     <g transform="translate(363.35 540.916563) scale(0.1 -0.1)">
      <defs>
       <path id="DejaVuSans-44" d="M 1259 4147 
L 1259 519 
L 2022 519 
Q 2988 519 3436 956 
Q 3884 1394 3884 2338 
Q 3884 3275 3436 3711 
Q 2988 4147 2022 4147 
L 1259 4147 
z
M 628 4666 
L 1925 4666 
Q 3281 4666 3915 4102 
Q 4550 3538 4550 2338 
Q 4550 1131 3912 565 
Q 3275 0 1925 0 
L 628 0 
L 628 4666 
z
" transform="scale(0.015625)"/>
      </defs>
      <use xlink:href="#DejaVuSans-44"/>
     </g>
    </g>
   </g>
   <g id="matplotlib.axis_2">
    <g id="ytick_1">
     <g id="line2d_8">
      <defs>
       <path id="m30abe94615" d="M 0 0 
L -3.5 0 
" style="stroke: #000000; stroke-width: 0.8"/>
      </defs>
      <g>
       <use xlink:href="#m30abe94615" x="86.4" y="510.149991" style="stroke: #000000; stroke-width: 0.8"/>
      </g>
     </g>
     <g id="text_9">
      <!-- 0.0 -->
      <g transform="translate(63.496875 513.949209) scale(0.1 -0.1)">
       <defs>
        <path id="DejaVuSans-2e" d="M 684 794 
L 1344 794 
L 1344 0 
L 684 0 
L 684 794 
z
" transform="scale(0.015625)"/>
       </defs>
       <use xlink:href="#DejaVuSans-30"/>
       <use xlink:href="#DejaVuSans-2e" x="63.623047"/>
       <use xlink:href="#DejaVuSans-30" x="95.410156"/>
      </g>
     </g>
    </g>
    <g id="ytick_2">
     <g id="line2d_9">
      <g>
       <use xlink:href="#m30abe94615" x="86.4" y="442.102491" style="stroke: #000000; stroke-width: 0.8"/>
      </g>
     </g>
     <g id="text_10">
      <!-- 0.1 -->
      <g transform="translate(63.496875 445.90171) scale(0.1 -0.1)">
       <use xlink:href="#DejaVuSans-30"/>
       <use xlink:href="#DejaVuSans-2e" x="63.623047"/>
       <use xlink:href="#DejaVuSans-31" x="95.410156"/>
      </g>
     </g>
    </g>
    <g id="ytick_3">
     <g id="line2d_10">
      <g>
       <use xlink:href="#m30abe94615" x="86.4" y="374.054991" style="stroke: #000000; stroke-width: 0.8"/>
      </g>
     </g>
     <g id="text_11">
      <!-- 0.2 -->
      <g transform="translate(63.496875 377.85421) scale(0.1 -0.1)">
       <use xlink:href="#DejaVuSans-30"/>
       <use xlink:href="#DejaVuSans-2e" x="63.623047"/>
       <use xlink:href="#DejaVuSans-32" x="95.410156"/>
      </g>
     </g>
    </g>
    <g id="ytick_4">
     <g id="line2d_11">
      <g>
       <use xlink:href="#m30abe94615" x="86.4" y="306.007492" style="stroke: #000000; stroke-width: 0.8"/>
      </g>
     </g>
     <g id="text_12">
      <!-- 0.3 -->
      <g transform="translate(63.496875 309.806711) scale(0.1 -0.1)">
       <defs>
        <path id="DejaVuSans-33" d="M 2597 2516 
Q 3050 2419 3304 2112 
Q 3559 1806 3559 1356 
Q 3559 666 3084 287 
Q 2609 -91 1734 -91 
Q 1441 -91 1130 -33 
Q 819 25 488 141 
L 488 750 
Q 750 597 1062 519 
Q 1375 441 1716 441 
Q 2309 441 2620 675 
Q 2931 909 2931 1356 
Q 2931 1769 2642 2001 
Q 2353 2234 1838 2234 
L 1294 2234 
L 1294 2753 
L 1863 2753 
Q 2328 2753 2575 2939 
Q 2822 3125 2822 3475 
Q 2822 3834 2567 4026 
Q 2313 4219 1838 4219 
Q 1578 4219 1281 4162 
Q 984 4106 628 3988 
L 628 4550 
Q 988 4650 1302 4700 
Q 1616 4750 1894 4750 
Q 2613 4750 3031 4423 
Q 3450 4097 3450 3541 
Q 3450 3153 3228 2886 
Q 3006 2619 2597 2516 
z
" transform="scale(0.015625)"/>
       </defs>
       <use xlink:href="#DejaVuSans-30"/>
       <use xlink:href="#DejaVuSans-2e" x="63.623047"/>
       <use xlink:href="#DejaVuSans-33" x="95.410156"/>
      </g>
     </g>
    </g>
    <g id="ytick_5">
     <g id="line2d_12">
      <g>
       <use xlink:href="#m30abe94615" x="86.4" y="237.959992" style="stroke: #000000; stroke-width: 0.8"/>
      </g>
     </g>
     <g id="text_13">
      <!-- 0.4 -->
      <g transform="translate(63.496875 241.759211) scale(0.1 -0.1)">
       <defs>
        <path id="DejaVuSans-34" d="M 2419 4116 
L 825 1625 
L 2419 1625 
L 2419 4116 
z
M 2253 4666 
L 3047 4666 
L 3047 1625 
L 3713 1625 
L 3713 1100 
L 3047 1100 
L 3047 0 
L 2419 0 
L 2419 1100 
L 313 1100 
L 313 1709 
L 2253 4666 
z
" transform="scale(0.015625)"/>
       </defs>
       <use xlink:href="#DejaVuSans-30"/>
       <use xlink:href="#DejaVuSans-2e" x="63.623047"/>
       <use xlink:href="#DejaVuSans-34" x="95.410156"/>
      </g>
     </g>
    </g>
    <g id="ytick_6">
     <g id="line2d_13">
      <g>
       <use xlink:href="#m30abe94615" x="86.4" y="169.912493" style="stroke: #000000; stroke-width: 0.8"/>
      </g>
     </g>
     <g id="text_14">
      <!-- 0.5 -->
      <g transform="translate(63.496875 173.711711) scale(0.1 -0.1)">
       <use xlink:href="#DejaVuSans-30"/>
       <use xlink:href="#DejaVuSans-2e" x="63.623047"/>
       <use xlink:href="#DejaVuSans-35" x="95.410156"/>
      </g>
     </g>
    </g>
    <g id="ytick_7">
     <g id="line2d_14">
      <g>
       <use xlink:href="#m30abe94615" x="86.4" y="101.864993" style="stroke: #000000; stroke-width: 0.8"/>
      </g>
     </g>
     <g id="text_15">
      <!-- 0.6 -->
      <g transform="translate(63.496875 105.664212) scale(0.1 -0.1)">
       <defs>
        <path id="DejaVuSans-36" d="M 2113 2584 
Q 1688 2584 1439 2293 
Q 1191 2003 1191 1497 
Q 1191 994 1439 701 
Q 1688 409 2113 409 
Q 2538 409 2786 701 
Q 3034 994 3034 1497 
Q 3034 2003 2786 2293 
Q 2538 2584 2113 2584 
z
M 3366 4563 
L 3366 3988 
Q 3128 4100 2886 4159 
Q 2644 4219 2406 4219 
Q 1781 4219 1451 3797 
Q 1122 3375 1075 2522 
Q 1259 2794 1537 2939 
Q 1816 3084 2150 3084 
Q 2853 3084 3261 2657 
Q 3669 2231 3669 1497 
Q 3669 778 3244 343 
Q 2819 -91 2113 -91 
Q 1303 -91 875 529 
Q 447 1150 447 2328 
Q 447 3434 972 4092 
Q 1497 4750 2381 4750 
Q 2619 4750 2861 4703 
Q 3103 4656 3366 4563 
z
" transform="scale(0.015625)"/>
       </defs>
       <use xlink:href="#DejaVuSans-30"/>
       <use xlink:href="#DejaVuSans-2e" x="63.623047"/>
       <use xlink:href="#DejaVuSans-36" x="95.410156"/>
      </g>
     </g>
    </g>
    <g id="text_16">
     <!-- Unique Token Ratio -->
     <g transform="translate(57.417187 338.751875) rotate(-90) scale(0.1 -0.1)">
      <defs>
       <path id="DejaVuSans-55" d="M 556 4666 
L 1191 4666 
L 1191 1831 
Q 1191 1081 1462 751 
Q 1734 422 2344 422 
Q 2950 422 3222 751 
Q 3494 1081 3494 1831 
L 3494 4666 
L 4128 4666 
L 4128 1753 
Q 4128 841 3676 375 
Q 3225 -91 2344 -91 
Q 1459 -91 1007 375 
Q 556 841 556 1753 
L 556 4666 
z
" transform="scale(0.015625)"/>
       <path id="DejaVuSans-6e" d="M 3513 2113 
L 3513 0 
L 2938 0 
L 2938 2094 
Q 2938 2591 2744 2837 
Q 2550 3084 2163 3084 
Q 1697 3084 1428 2787 
Q 1159 2491 1159 1978 
L 1159 0 
L 581 0 
L 581 3500 
L 1159 3500 
L 1159 2956 
Q 1366 3272 1645 3428 
Q 1925 3584 2291 3584 
Q 2894 3584 3203 3211 
Q 3513 2838 3513 2113 
z
" transform="scale(0.015625)"/>
       <path id="DejaVuSans-69" d="M 603 3500 
L 1178 3500 
L 1178 0 
L 603 0 
L 603 3500 
z
M 603 4863 
L 1178 4863 
L 1178 4134 
L 603 4134 
L 603 4863 
z
" transform="scale(0.015625)"/>
       <path id="DejaVuSans-71" d="M 947 1747 
Q 947 1113 1208 752 
Q 1469 391 1925 391 
Q 2381 391 2643 752 
Q 2906 1113 2906 1747 
Q 2906 2381 2643 2742 
Q 2381 3103 1925 3103 
Q 1469 3103 1208 2742 
Q 947 2381 947 1747 
z
M 2906 525 
Q 2725 213 2448 61 
Q 2172 -91 1784 -91 
Q 1150 -91 751 415 
Q 353 922 353 1747 
Q 353 2572 751 3078 
Q 1150 3584 1784 3584 
Q 2172 3584 2448 3432 
Q 2725 3281 2906 2969 
L 2906 3500 
L 3481 3500 
L 3481 -1331 
L 2906 -1331 
L 2906 525 
z
" transform="scale(0.015625)"/>
       <path id="DejaVuSans-75" d="M 544 1381 
L 544 3500 
L 1119 3500 
L 1119 1403 
Q 1119 906 1312 657 
Q 1506 409 1894 409 
Q 2359 409 2629 706 
Q 2900 1003 2900 1516 
L 2900 3500 
L 3475 3500 
L 3475 0 
L 2900 0 
L 2900 538 
Q 2691 219 2414 64 
Q 2138 -91 1772 -91 
Q 1169 -91 856 284 
Q 544 659 544 1381 
z
M 1991 3584 
L 1991 3584 
z
" transform="scale(0.015625)"/>
       <path id="DejaVuSans-65" d="M 3597 1894 
L 3597 1613 
L 953 1613 
Q 991 1019 1311 708 
Q 1631 397 2203 397 
Q 2534 397 2845 478 
Q 3156 559 3463 722 
L 3463 178 
Q 3153 47 2828 -22 
Q 2503 -91 2169 -91 
Q 1331 -91 842 396 
Q 353 884 353 1716 
Q 353 2575 817 3079 
Q 1281 3584 2069 3584 
Q 2775 3584 3186 3129 
Q 3597 2675 3597 1894 
z
M 3022 2063 
Q 3016 2534 2758 2815 
Q 2500 3097 2075 3097 
Q 1594 3097 1305 2825 
Q 1016 2553 972 2059 
L 3022 2063 
z
" transform="scale(0.015625)"/>
       <path id="DejaVuSans-20" transform="scale(0.015625)"/>
       <path id="DejaVuSans-54" d="M -19 4666 
L 3928 4666 
L 3928 4134 
L 2272 4134 
L 2272 0 
L 1638 0 
L 1638 4134 
L -19 4134 
L -19 4666 
z
" transform="scale(0.015625)"/>
       <path id="DejaVuSans-6f" d="M 1959 3097 
Q 1497 3097 1228 2736 
Q 959 2375 959 1747 
Q 959 1119 1226 758 
Q 1494 397 1959 397 
Q 2419 397 2687 759 
Q 2956 1122 2956 1747 
Q 2956 2369 2687 2733 
Q 2419 3097 1959 3097 
z
M 1959 3584 
Q 2709 3584 3137 3096 
Q 3566 2609 3566 1747 
Q 3566 888 3137 398 
Q 2709 -91 1959 -91 
Q 1206 -91 779 398 
Q 353 888 353 1747 
Q 353 2609 779 3096 
Q 1206 3584 1959 3584 
z
" transform="scale(0.015625)"/>
       <path id="DejaVuSans-6b" d="M 581 4863 
L 1159 4863 
L 1159 1991 
L 2875 3500 
L 3609 3500 
L 1753 1863 
L 3688 0 
L 2938 0 
L 1159 1709 
L 1159 0 
L 581 0 
L 581 4863 
z
" transform="scale(0.015625)"/>
       <path id="DejaVuSans-52" d="M 2841 2188 
Q 3044 2119 3236 1894 
Q 3428 1669 3622 1275 
L 4263 0 
L 3584 0 
L 2988 1197 
Q 2756 1666 2539 1819 
Q 2322 1972 1947 1972 
L 1259 1972 
L 1259 0 
L 628 0 
L 628 4666 
L 2053 4666 
Q 2853 4666 3247 4331 
Q 3641 3997 3641 3322 
Q 3641 2881 3436 2590 
Q 3231 2300 2841 2188 
z
M 1259 4147 
L 1259 2491 
L 2053 2491 
Q 2509 2491 2742 2702 
Q 2975 2913 2975 3322 
Q 2975 3731 2742 3939 
Q 2509 4147 2053 4147 
L 1259 4147 
z
" transform="scale(0.015625)"/>
       <path id="DejaVuSans-61" d="M 2194 1759 
Q 1497 1759 1228 1600 
Q 959 1441 959 1056 
Q 959 750 1161 570 
Q 1363 391 1709 391 
Q 2188 391 2477 730 
Q 2766 1069 2766 1631 
L 2766 1759 
L 2194 1759 
z
M 3341 1997 
L 3341 0 
L 2766 0 
L 2766 531 
Q 2569 213 2275 61 
Q 1981 -91 1556 -91 
Q 1019 -91 701 211 
Q 384 513 384 1019 
Q 384 1609 779 1909 
Q 1175 2209 1959 2209 
L 2766 2209 
L 2766 2266 
Q 2766 2663 2505 2880 
Q 2244 3097 1772 3097 
Q 1472 3097 1187 3025 
Q 903 2953 641 2809 
L 641 3341 
Q 956 3463 1253 3523 
Q 1550 3584 1831 3584 
Q 2591 3584 2966 3190 
Q 3341 2797 3341 1997 
z
" transform="scale(0.015625)"/>
       <path id="DejaVuSans-74" d="M 1172 4494 
L 1172 3500 
L 2356 3500 
L 2356 3053 
L 1172 3053 
L 1172 1153 
Q 1172 725 1289 603 
Q 1406 481 1766 481 
L 2356 481 
L 2356 0 
L 1766 0 
Q 1100 0 847 248 
Q 594 497 594 1153 
L 594 3053 
L 172 3053 
L 172 3500 
L 594 3500 
L 594 4494 
L 1172 4494 
z
" transform="scale(0.015625)"/>
      </defs>
      <use xlink:href="#DejaVuSans-55"/>
      <use xlink:href="#DejaVuSans-6e" x="73.193359"/>
      <use xlink:href="#DejaVuSans-69" x="136.572266"/>
      <use xlink:href="#DejaVuSans-71" x="164.355469"/>
      <use xlink:href="#DejaVuSans-75" x="227.832031"/>
      <use xlink:href="#DejaVuSans-65" x="291.210938"/>
      <use xlink:href="#DejaVuSans-20" x="352.734375"/>
      <use xlink:href="#DejaVuSans-54" x="384.521484"/>
      <use xlink:href="#DejaVuSans-6f" x="428.605469"/>
      <use xlink:href="#DejaVuSans-6b" x="489.787109"/>
      <use xlink:href="#DejaVuSans-65" x="544.072266"/>
      <use xlink:href="#DejaVuSans-6e" x="605.595703"/>
      <use xlink:href="#DejaVuSans-20" x="668.974609"/>
      <use xlink:href="#DejaVuSans-52" x="700.761719"/>
      <use xlink:href="#DejaVuSans-61" x="767.994141"/>
      <use xlink:href="#DejaVuSans-74" x="829.273438"/>
      <use xlink:href="#DejaVuSans-69" x="868.482422"/>
      <use xlink:href="#DejaVuSans-6f" x="896.265625"/>
     </g>
    </g>
   </g>
   <g id="line2d_15">
    <path d="M 111.927273 89.28 
L 168.654545 194.532623 
L 225.381818 243.148844 
L 282.109091 277.091253 
L 338.836364 303.314319 
L 395.563636 321.236618 
L 452.290909 335.170706 
L 509.018182 347.195296 
L 565.745455 357.319627 
L 622.472727 365.981146 
" clip-path="url(#p12dbacc063)" style="fill: none; stroke: #1f77b4; stroke-width: 1.5; stroke-linecap: square"/>
    <defs>
     <path id="m7d45b8b409" d="M 0 3 
C 0.795609 3 1.55874 2.683901 2.12132 2.12132 
C 2.683901 1.55874 3 0.795609 3 0 
C 3 -0.795609 2.683901 -1.55874 2.12132 -2.12132 
C 1.55874 -2.683901 0.795609 -3 0 -3 
C -0.795609 -3 -1.55874 -2.683901 -2.12132 -2.12132 
C -2.683901 -1.55874 -3 -0.795609 -3 0 
C -3 0.795609 -2.683901 1.55874 -2.12132 2.12132 
C -1.55874 2.683901 -0.795609 3 0 3 
z
" style="stroke: #1f77b4"/>
    </defs>
    <g clip-path="url(#p12dbacc063)">
     <use xlink:href="#m7d45b8b409" x="111.927273" y="89.28" style="fill: #1f77b4; stroke: #1f77b4"/>
     <use xlink:href="#m7d45b8b409" x="168.654545" y="194.532623" style="fill: #1f77b4; stroke: #1f77b4"/>
     <use xlink:href="#m7d45b8b409" x="225.381818" y="243.148844" style="fill: #1f77b4; stroke: #1f77b4"/>
     <use xlink:href="#m7d45b8b409" x="282.109091" y="277.091253" style="fill: #1f77b4; stroke: #1f77b4"/>
     <use xlink:href="#m7d45b8b409" x="338.836364" y="303.314319" style="fill: #1f77b4; stroke: #1f77b4"/>
     <use xlink:href="#m7d45b8b409" x="395.563636" y="321.236618" style="fill: #1f77b4; stroke: #1f77b4"/>
     <use xlink:href="#m7d45b8b409" x="452.290909" y="335.170706" style="fill: #1f77b4; stroke: #1f77b4"/>
     <use xlink:href="#m7d45b8b409" x="509.018182" y="347.195296" style="fill: #1f77b4; stroke: #1f77b4"/>
     <use xlink:href="#m7d45b8b409" x="565.745455" y="357.319627" style="fill: #1f77b4; stroke: #1f77b4"/>
     <use xlink:href="#m7d45b8b409" x="622.472727" y="365.981146" style="fill: #1f77b4; stroke: #1f77b4"/>
    </g>
   </g>
   <g id="line2d_16">
    <path d="M 111.927273 368.851536 
L 168.654545 417.43792 
L 225.381818 435.939593 
L 282.109091 446.472448 
L 338.836364 453.590143 
L 395.563636 458.50479 
L 452.290909 462.423736 
L 509.018182 465.514744 
L 565.745455 467.951955 
L 622.472727 470.003936 
" clip-path="url(#p12dbacc063)" style="fill: none; stroke: #ff7f0e; stroke-width: 1.5; stroke-linecap: square"/>
    <defs>
     <path id="m63c9b9360a" d="M 0 3 
C 0.795609 3 1.55874 2.683901 2.12132 2.12132 
C 2.683901 1.55874 3 0.795609 3 0 
C 3 -0.795609 2.683901 -1.55874 2.12132 -2.12132 
C 1.55874 -2.683901 0.795609 -3 0 -3 
C -0.795609 -3 -1.55874 -2.683901 -2.12132 -2.12132 
C -2.683901 -1.55874 -3 -0.795609 -3 0 
C -3 0.795609 -2.683901 1.55874 -2.12132 2.12132 
C -1.55874 2.683901 -0.795609 3 0 3 
z
" style="stroke: #ff7f0e"/>
    </defs>
    <g clip-path="url(#p12dbacc063)">
     <use xlink:href="#m63c9b9360a" x="111.927273" y="368.851536" style="fill: #ff7f0e; stroke: #ff7f0e"/>
     <use xlink:href="#m63c9b9360a" x="168.654545" y="417.43792" style="fill: #ff7f0e; stroke: #ff7f0e"/>
     <use xlink:href="#m63c9b9360a" x="225.381818" y="435.939593" style="fill: #ff7f0e; stroke: #ff7f0e"/>
     <use xlink:href="#m63c9b9360a" x="282.109091" y="446.472448" style="fill: #ff7f0e; stroke: #ff7f0e"/>
     <use xlink:href="#m63c9b9360a" x="338.836364" y="453.590143" style="fill: #ff7f0e; stroke: #ff7f0e"/>
     <use xlink:href="#m63c9b9360a" x="395.563636" y="458.50479" style="fill: #ff7f0e; stroke: #ff7f0e"/>
     <use xlink:href="#m63c9b9360a" x="452.290909" y="462.423736" style="fill: #ff7f0e; stroke: #ff7f0e"/>
     <use xlink:href="#m63c9b9360a" x="509.018182" y="465.514744" style="fill: #ff7f0e; stroke: #ff7f0e"/>
     <use xlink:href="#m63c9b9360a" x="565.745455" y="467.951955" style="fill: #ff7f0e; stroke: #ff7f0e"/>
     <use xlink:href="#m63c9b9360a" x="622.472727" y="470.003936" style="fill: #ff7f0e; stroke: #ff7f0e"/>
    </g>
   </g>
   <g id="line2d_17">
    <path d="M 111.927273 411.040986 
L 168.654545 447.257399 
L 225.381818 460.485211 
L 282.109091 467.802981 
L 338.836364 472.573509 
L 395.563636 475.901751 
L 452.290909 478.430797 
L 509.018182 480.416421 
L 565.745455 481.989212 
L 622.472727 483.313265 
" clip-path="url(#p12dbacc063)" style="fill: none; stroke: #2ca02c; stroke-width: 1.5; stroke-linecap: square"/>
    <defs>
     <path id="mdce02b1f93" d="M 0 3 
C 0.795609 3 1.55874 2.683901 2.12132 2.12132 
C 2.683901 1.55874 3 0.795609 3 0 
C 3 -0.795609 2.683901 -1.55874 2.12132 -2.12132 
C 1.55874 -2.683901 0.795609 -3 0 -3 
C -0.795609 -3 -1.55874 -2.683901 -2.12132 -2.12132 
C -2.683901 -1.55874 -3 -0.795609 -3 0 
C -3 0.795609 -2.683901 1.55874 -2.12132 2.12132 
C -1.55874 2.683901 -0.795609 3 0 3 
z
" style="stroke: #2ca02c"/>
    </defs>
    <g clip-path="url(#p12dbacc063)">
     <use xlink:href="#mdce02b1f93" x="111.927273" y="411.040986" style="fill: #2ca02c; stroke: #2ca02c"/>
     <use xlink:href="#mdce02b1f93" x="168.654545" y="447.257399" style="fill: #2ca02c; stroke: #2ca02c"/>
     <use xlink:href="#mdce02b1f93" x="225.381818" y="460.485211" style="fill: #2ca02c; stroke: #2ca02c"/>
     <use xlink:href="#mdce02b1f93" x="282.109091" y="467.802981" style="fill: #2ca02c; stroke: #2ca02c"/>
     <use xlink:href="#mdce02b1f93" x="338.836364" y="472.573509" style="fill: #2ca02c; stroke: #2ca02c"/>
     <use xlink:href="#mdce02b1f93" x="395.563636" y="475.901751" style="fill: #2ca02c; stroke: #2ca02c"/>
     <use xlink:href="#mdce02b1f93" x="452.290909" y="478.430797" style="fill: #2ca02c; stroke: #2ca02c"/>
     <use xlink:href="#mdce02b1f93" x="509.018182" y="480.416421" style="fill: #2ca02c; stroke: #2ca02c"/>
     <use xlink:href="#mdce02b1f93" x="565.745455" y="481.989212" style="fill: #2ca02c; stroke: #2ca02c"/>
     <use xlink:href="#mdce02b1f93" x="622.472727" y="483.313265" style="fill: #2ca02c; stroke: #2ca02c"/>
    </g>
   </g>
   <g id="line2d_18">
    <path d="M 111.927273 430.594305 
L 168.654545 460.445915 
L 225.381818 470.999764 
L 282.109091 476.816886 
L 338.836364 480.639943 
L 395.563636 483.302191 
L 452.290909 485.283321 
L 509.018182 486.821682 
L 565.745455 488.044898 
L 622.472727 489.066406 
" clip-path="url(#p12dbacc063)" style="fill: none; stroke: #d62728; stroke-width: 1.5; stroke-linecap: square"/>
    <defs>
     <path id="m5dbbb2a345" d="M 0 3 
C 0.795609 3 1.55874 2.683901 2.12132 2.12132 
C 2.683901 1.55874 3 0.795609 3 0 
C 3 -0.795609 2.683901 -1.55874 2.12132 -2.12132 
C 1.55874 -2.683901 0.795609 -3 0 -3 
C -0.795609 -3 -1.55874 -2.683901 -2.12132 -2.12132 
C -2.683901 -1.55874 -3 -0.795609 -3 0 
C -3 0.795609 -2.683901 1.55874 -2.12132 2.12132 
C -1.55874 2.683901 -0.795609 3 0 3 
z
" style="stroke: #d62728"/>
    </defs>
    <g clip-path="url(#p12dbacc063)">
     <use xlink:href="#m5dbbb2a345" x="111.927273" y="430.594305" style="fill: #d62728; stroke: #d62728"/>
     <use xlink:href="#m5dbbb2a345" x="168.654545" y="460.445915" style="fill: #d62728; stroke: #d62728"/>
     <use xlink:href="#m5dbbb2a345" x="225.381818" y="470.999764" style="fill: #d62728; stroke: #d62728"/>
     <use xlink:href="#m5dbbb2a345" x="282.109091" y="476.816886" style="fill: #d62728; stroke: #d62728"/>
     <use xlink:href="#m5dbbb2a345" x="338.836364" y="480.639943" style="fill: #d62728; stroke: #d62728"/>
     <use xlink:href="#m5dbbb2a345" x="395.563636" y="483.302191" style="fill: #d62728; stroke: #d62728"/>
     <use xlink:href="#m5dbbb2a345" x="452.290909" y="485.283321" style="fill: #d62728; stroke: #d62728"/>
     <use xlink:href="#m5dbbb2a345" x="509.018182" y="486.821682" style="fill: #d62728; stroke: #d62728"/>
     <use xlink:href="#m5dbbb2a345" x="565.745455" y="488.044898" style="fill: #d62728; stroke: #d62728"/>
     <use xlink:href="#m5dbbb2a345" x="622.472727" y="489.066406" style="fill: #d62728; stroke: #d62728"/>
    </g>
   </g>
   <g id="line2d_19">
    <path d="M 111.927273 442.798922 
L 168.654545 468.408487 
L 225.381818 477.375353 
L 282.109091 482.273395 
L 338.836364 485.459608 
L 395.563636 487.679953 
L 452.290909 489.33222 
L 509.018182 490.60436 
L 565.745455 491.622924 
L 622.472727 492.48 
" clip-path="url(#p12dbacc063)" style="fill: none; stroke: #9467bd; stroke-width: 1.5; stroke-linecap: square"/>
    <defs>
     <path id="m9074fd7f1f" d="M 0 3 
C 0.795609 3 1.55874 2.683901 2.12132 2.12132 
C 2.683901 1.55874 3 0.795609 3 0 
C 3 -0.795609 2.683901 -1.55874 2.12132 -2.12132 
C 1.55874 -2.683901 0.795609 -3 0 -3 
C -0.795609 -3 -1.55874 -2.683901 -2.12132 -2.12132 
C -2.683901 -1.55874 -3 -0.795609 -3 0 
C -3 0.795609 -2.683901 1.55874 -2.12132 2.12132 
C -1.55874 2.683901 -0.795609 3 0 3 
z
" style="stroke: #9467bd"/>
    </defs>
    <g clip-path="url(#p12dbacc063)">
     <use xlink:href="#m9074fd7f1f" x="111.927273" y="442.798922" style="fill: #9467bd; stroke: #9467bd"/>
     <use xlink:href="#m9074fd7f1f" x="168.654545" y="468.408487" style="fill: #9467bd; stroke: #9467bd"/>
     <use xlink:href="#m9074fd7f1f" x="225.381818" y="477.375353" style="fill: #9467bd; stroke: #9467bd"/>
     <use xlink:href="#m9074fd7f1f" x="282.109091" y="482.273395" style="fill: #9467bd; stroke: #9467bd"/>
     <use xlink:href="#m9074fd7f1f" x="338.836364" y="485.459608" style="fill: #9467bd; stroke: #9467bd"/>
     <use xlink:href="#m9074fd7f1f" x="395.563636" y="487.679953" style="fill: #9467bd; stroke: #9467bd"/>
     <use xlink:href="#m9074fd7f1f" x="452.290909" y="489.33222" style="fill: #9467bd; stroke: #9467bd"/>
     <use xlink:href="#m9074fd7f1f" x="509.018182" y="490.60436" style="fill: #9467bd; stroke: #9467bd"/>
     <use xlink:href="#m9074fd7f1f" x="565.745455" y="491.622924" style="fill: #9467bd; stroke: #9467bd"/>
     <use xlink:href="#m9074fd7f1f" x="622.472727" y="492.48" style="fill: #9467bd; stroke: #9467bd"/>
    </g>
   </g>
   <g id="patch_4">
    <path d="M 86.4 512.64 
L 86.4 69.12 
" style="fill: none; stroke: #000000; stroke-width: 0.8; stroke-linejoin: miter; stroke-linecap: square"/>
   </g>
   <g id="patch_5">
    <path d="M 648 512.64 
L 648 69.12 
" style="fill: none; stroke: #000000; stroke-width: 0.8; stroke-linejoin: miter; stroke-linecap: square"/>
   </g>
   <g id="patch_6">
    <path d="M 86.4 512.64 
L 648 512.64 
" style="fill: none; stroke: #000000; stroke-width: 0.8; stroke-linejoin: miter; stroke-linecap: square"/>
   </g>
   <g id="patch_7">
    <path d="M 86.4 69.12 
L 648 69.12 
" style="fill: none; stroke: #000000; stroke-width: 0.8; stroke-linejoin: miter; stroke-linecap: square"/>
   </g>
   <g id="text_17">
    <!-- Unique Token Ratio vs. D for Different B -->
    <g transform="translate(248.267813 63.12) scale(0.12 -0.12)">
     <defs>
      <path id="DejaVuSans-76" d="M 191 3500 
L 800 3500 
L 1894 563 
L 2988 3500 
L 3597 3500 
L 2284 0 
L 1503 0 
L 191 3500 
z
" transform="scale(0.015625)"/>
      <path id="DejaVuSans-73" d="M 2834 3397 
L 2834 2853 
Q 2591 2978 2328 3040 
Q 2066 3103 1784 3103 
Q 1356 3103 1142 2972 
Q 928 2841 928 2578 
Q 928 2378 1081 2264 
Q 1234 2150 1697 2047 
L 1894 2003 
Q 2506 1872 2764 1633 
Q 3022 1394 3022 966 
Q 3022 478 2636 193 
Q 2250 -91 1575 -91 
Q 1294 -91 989 -36 
Q 684 19 347 128 
L 347 722 
Q 666 556 975 473 
Q 1284 391 1588 391 
Q 1994 391 2212 530 
Q 2431 669 2431 922 
Q 2431 1156 2273 1281 
Q 2116 1406 1581 1522 
L 1381 1569 
Q 847 1681 609 1914 
Q 372 2147 372 2553 
Q 372 3047 722 3315 
Q 1072 3584 1716 3584 
Q 2034 3584 2315 3537 
Q 2597 3491 2834 3397 
z
" transform="scale(0.015625)"/>
      <path id="DejaVuSans-66" d="M 2375 4863 
L 2375 4384 
L 1825 4384 
Q 1516 4384 1395 4259 
Q 1275 4134 1275 3809 
L 1275 3500 
L 2222 3500 
L 2222 3053 
L 1275 3053 
L 1275 0 
L 697 0 
L 697 3053 
L 147 3053 
L 147 3500 
L 697 3500 
L 697 3744 
Q 697 4328 969 4595 
Q 1241 4863 1831 4863 
L 2375 4863 
z
" transform="scale(0.015625)"/>
      <path id="DejaVuSans-72" d="M 2631 2963 
Q 2534 3019 2420 3045 
Q 2306 3072 2169 3072 
Q 1681 3072 1420 2755 
Q 1159 2438 1159 1844 
L 1159 0 
L 581 0 
L 581 3500 
L 1159 3500 
L 1159 2956 
Q 1341 3275 1631 3429 
Q 1922 3584 2338 3584 
Q 2397 3584 2469 3576 
Q 2541 3569 2628 3553 
L 2631 2963 
z
" transform="scale(0.015625)"/>
      <path id="DejaVuSans-42" d="M 1259 2228 
L 1259 519 
L 2272 519 
Q 2781 519 3026 730 
Q 3272 941 3272 1375 
Q 3272 1813 3026 2020 
Q 2781 2228 2272 2228 
L 1259 2228 
z
M 1259 4147 
L 1259 2741 
L 2194 2741 
Q 2656 2741 2882 2914 
Q 3109 3088 3109 3444 
Q 3109 3797 2882 3972 
Q 2656 4147 2194 4147 
L 1259 4147 
z
M 628 4666 
L 2241 4666 
Q 2963 4666 3353 4366 
Q 3744 4066 3744 3513 
Q 3744 3084 3544 2831 
Q 3344 2578 2956 2516 
Q 3422 2416 3680 2098 
Q 3938 1781 3938 1306 
Q 3938 681 3513 340 
Q 3088 0 2303 0 
L 628 0 
L 628 4666 
z
" transform="scale(0.015625)"/>
     </defs>
     <use xlink:href="#DejaVuSans-55"/>
     <use xlink:href="#DejaVuSans-6e" x="73.193359"/>
     <use xlink:href="#DejaVuSans-69" x="136.572266"/>
     <use xlink:href="#DejaVuSans-71" x="164.355469"/>
     <use xlink:href="#DejaVuSans-75" x="227.832031"/>
     <use xlink:href="#DejaVuSans-65" x="291.210938"/>
     <use xlink:href="#DejaVuSans-20" x="352.734375"/>
     <use xlink:href="#DejaVuSans-54" x="384.521484"/>
     <use xlink:href="#DejaVuSans-6f" x="428.605469"/>
     <use xlink:href="#DejaVuSans-6b" x="489.787109"/>
     <use xlink:href="#DejaVuSans-65" x="544.072266"/>
     <use xlink:href="#DejaVuSans-6e" x="605.595703"/>
     <use xlink:href="#DejaVuSans-20" x="668.974609"/>
     <use xlink:href="#DejaVuSans-52" x="700.761719"/>
     <use xlink:href="#DejaVuSans-61" x="767.994141"/>
     <use xlink:href="#DejaVuSans-74" x="829.273438"/>
     <use xlink:href="#DejaVuSans-69" x="868.482422"/>
     <use xlink:href="#DejaVuSans-6f" x="896.265625"/>
     <use xlink:href="#DejaVuSans-20" x="957.447266"/>
     <use xlink:href="#DejaVuSans-76" x="989.234375"/>
     <use xlink:href="#DejaVuSans-73" x="1048.414062"/>
     <use xlink:href="#DejaVuSans-2e" x="1100.513672"/>
     <use xlink:href="#DejaVuSans-20" x="1132.300781"/>
     <use xlink:href="#DejaVuSans-44" x="1164.087891"/>
     <use xlink:href="#DejaVuSans-20" x="1241.089844"/>
     <use xlink:href="#DejaVuSans-66" x="1272.876953"/>
     <use xlink:href="#DejaVuSans-6f" x="1308.082031"/>
     <use xlink:href="#DejaVuSans-72" x="1369.263672"/>
     <use xlink:href="#DejaVuSans-20" x="1410.376953"/>
     <use xlink:href="#DejaVuSans-44" x="1442.164062"/>
     <use xlink:href="#DejaVuSans-69" x="1519.166016"/>
     <use xlink:href="#DejaVuSans-66" x="1546.949219"/>
     <use xlink:href="#DejaVuSans-66" x="1582.154297"/>
     <use xlink:href="#DejaVuSans-65" x="1617.359375"/>
     <use xlink:href="#DejaVuSans-72" x="1678.882812"/>
     <use xlink:href="#DejaVuSans-65" x="1717.746094"/>
     <use xlink:href="#DejaVuSans-6e" x="1779.269531"/>
     <use xlink:href="#DejaVuSans-74" x="1842.648438"/>
     <use xlink:href="#DejaVuSans-20" x="1881.857422"/>
     <use xlink:href="#DejaVuSans-42" x="1913.644531"/>
    </g>
   </g>
   <g id="legend_1">
    <g id="patch_8">
     <path d="M 561.946875 150.510625 
L 641 150.510625 
Q 643 150.510625 643 148.510625 
L 643 76.12 
Q 643 74.12 641 74.12 
L 561.946875 74.12 
Q 559.946875 74.12 559.946875 76.12 
L 559.946875 148.510625 
Q 559.946875 150.510625 561.946875 150.510625 
z
" style="fill: #ffffff; opacity: 0.8; stroke: #cccccc; stroke-linejoin: miter"/>
    </g>
    <g id="line2d_20">
     <path d="M 563.946875 82.218437 
L 573.946875 82.218437 
L 583.946875 82.218437 
" style="fill: none; stroke: #1f77b4; stroke-width: 1.5; stroke-linecap: square"/>
     <g>
      <use xlink:href="#m7d45b8b409" x="573.946875" y="82.218437" style="fill: #1f77b4; stroke: #1f77b4"/>
     </g>
    </g>
    <g id="text_18">
     <!-- B=250 -->
     <g transform="translate(591.946875 85.718437) scale(0.1 -0.1)">
      <defs>
       <path id="DejaVuSans-3d" d="M 678 2906 
L 4684 2906 
L 4684 2381 
L 678 2381 
L 678 2906 
z
M 678 1631 
L 4684 1631 
L 4684 1100 
L 678 1100 
L 678 1631 
z
" transform="scale(0.015625)"/>
      </defs>
      <use xlink:href="#DejaVuSans-42"/>
      <use xlink:href="#DejaVuSans-3d" x="68.603516"/>
      <use xlink:href="#DejaVuSans-32" x="152.392578"/>
      <use xlink:href="#DejaVuSans-35" x="216.015625"/>
      <use xlink:href="#DejaVuSans-30" x="279.638672"/>
     </g>
    </g>
    <g id="line2d_21">
     <path d="M 563.946875 96.896563 
L 573.946875 96.896563 
L 583.946875 96.896563 
" style="fill: none; stroke: #ff7f0e; stroke-width: 1.5; stroke-linecap: square"/>
     <g>
      <use xlink:href="#m63c9b9360a" x="573.946875" y="96.896563" style="fill: #ff7f0e; stroke: #ff7f0e"/>
     </g>
    </g>
    <g id="text_19">
     <!-- B=4250 -->
     <g transform="translate(591.946875 100.396563) scale(0.1 -0.1)">
      <use xlink:href="#DejaVuSans-42"/>
      <use xlink:href="#DejaVuSans-3d" x="68.603516"/>
      <use xlink:href="#DejaVuSans-34" x="152.392578"/>
      <use xlink:href="#DejaVuSans-32" x="216.015625"/>
      <use xlink:href="#DejaVuSans-35" x="279.638672"/>
      <use xlink:href="#DejaVuSans-30" x="343.261719"/>
     </g>
    </g>
    <g id="line2d_22">
     <path d="M 563.946875 111.574687 
L 573.946875 111.574687 
L 583.946875 111.574687 
" style="fill: none; stroke: #2ca02c; stroke-width: 1.5; stroke-linecap: square"/>
     <g>
      <use xlink:href="#mdce02b1f93" x="573.946875" y="111.574687" style="fill: #2ca02c; stroke: #2ca02c"/>
     </g>
    </g>
    <g id="text_20">
     <!-- B=8250 -->
     <g transform="translate(591.946875 115.074687) scale(0.1 -0.1)">
      <defs>
       <path id="DejaVuSans-38" d="M 2034 2216 
Q 1584 2216 1326 1975 
Q 1069 1734 1069 1313 
Q 1069 891 1326 650 
Q 1584 409 2034 409 
Q 2484 409 2743 651 
Q 3003 894 3003 1313 
Q 3003 1734 2745 1975 
Q 2488 2216 2034 2216 
z
M 1403 2484 
Q 997 2584 770 2862 
Q 544 3141 544 3541 
Q 544 4100 942 4425 
Q 1341 4750 2034 4750 
Q 2731 4750 3128 4425 
Q 3525 4100 3525 3541 
Q 3525 3141 3298 2862 
Q 3072 2584 2669 2484 
Q 3125 2378 3379 2068 
Q 3634 1759 3634 1313 
Q 3634 634 3220 271 
Q 2806 -91 2034 -91 
Q 1263 -91 848 271 
Q 434 634 434 1313 
Q 434 1759 690 2068 
Q 947 2378 1403 2484 
z
M 1172 3481 
Q 1172 3119 1398 2916 
Q 1625 2713 2034 2713 
Q 2441 2713 2670 2916 
Q 2900 3119 2900 3481 
Q 2900 3844 2670 4047 
Q 2441 4250 2034 4250 
Q 1625 4250 1398 4047 
Q 1172 3844 1172 3481 
z
" transform="scale(0.015625)"/>
      </defs>
      <use xlink:href="#DejaVuSans-42"/>
      <use xlink:href="#DejaVuSans-3d" x="68.603516"/>
      <use xlink:href="#DejaVuSans-38" x="152.392578"/>
      <use xlink:href="#DejaVuSans-32" x="216.015625"/>
      <use xlink:href="#DejaVuSans-35" x="279.638672"/>
      <use xlink:href="#DejaVuSans-30" x="343.261719"/>
     </g>
    </g>
    <g id="line2d_23">
     <path d="M 563.946875 126.252813 
L 573.946875 126.252813 
L 583.946875 126.252813 
" style="fill: none; stroke: #d62728; stroke-width: 1.5; stroke-linecap: square"/>
     <g>
      <use xlink:href="#m5dbbb2a345" x="573.946875" y="126.252813" style="fill: #d62728; stroke: #d62728"/>
     </g>
    </g>
    <g id="text_21">
     <!-- B=12250 -->
     <g transform="translate(591.946875 129.752813) scale(0.1 -0.1)">
      <use xlink:href="#DejaVuSans-42"/>
      <use xlink:href="#DejaVuSans-3d" x="68.603516"/>
      <use xlink:href="#DejaVuSans-31" x="152.392578"/>
      <use xlink:href="#DejaVuSans-32" x="216.015625"/>
      <use xlink:href="#DejaVuSans-32" x="279.638672"/>
      <use xlink:href="#DejaVuSans-35" x="343.261719"/>
      <use xlink:href="#DejaVuSans-30" x="406.884766"/>
     </g>
    </g>
    <g id="line2d_24">
     <path d="M 563.946875 140.930938 
L 573.946875 140.930938 
L 583.946875 140.930938 
" style="fill: none; stroke: #9467bd; stroke-width: 1.5; stroke-linecap: square"/>
     <g>
      <use xlink:href="#m9074fd7f1f" x="573.946875" y="140.930938" style="fill: #9467bd; stroke: #9467bd"/>
     </g>
    </g>
    <g id="text_22">
     <!-- B=16250 -->
     <g transform="translate(591.946875 144.430938) scale(0.1 -0.1)">
      <use xlink:href="#DejaVuSans-42"/>
      <use xlink:href="#DejaVuSans-3d" x="68.603516"/>
      <use xlink:href="#DejaVuSans-31" x="152.392578"/>
      <use xlink:href="#DejaVuSans-36" x="216.015625"/>
      <use xlink:href="#DejaVuSans-32" x="279.638672"/>
      <use xlink:href="#DejaVuSans-35" x="343.261719"/>
      <use xlink:href="#DejaVuSans-30" x="406.884766"/>
     </g>
    </g>
   </g>
  </g>
  <g id="axes_2">
   <g id="patch_9">
    <path d="M 709.16 335.232 
L 827.096 335.232 
L 827.096 157.824 
L 709.16 157.824 
z
" style="fill: #ffffff"/>
   </g>
   <g id="patch_10">
    <path d="M 709.16 157.824 
L 452.290909 442.102491 
" style="fill: none; stroke: #808080; stroke-linejoin: miter"/>
   </g>
   <g id="patch_11">
    <path d="M 827.096 335.232 
L 622.472727 510.149991 
" style="fill: none; stroke: #808080; stroke-linejoin: miter"/>
   </g>
   <g id="matplotlib.axis_3">
    <g id="xtick_8">
     <g id="line2d_25"/>
     <g id="text_23">
      <!-- 140 -->
      <g transform="translate(719.27225 346.330438) scale(0.1 -0.1)">
       <use xlink:href="#DejaVuSans-31"/>
       <use xlink:href="#DejaVuSans-34" x="63.623047"/>
       <use xlink:href="#DejaVuSans-30" x="127.246094"/>
      </g>
     </g>
    </g>
    <g id="xtick_9">
     <g id="line2d_26"/>
     <g id="text_24">
      <!-- 160 -->
      <g transform="translate(758.58425 346.330438) scale(0.1 -0.1)">
       <use xlink:href="#DejaVuSans-31"/>
       <use xlink:href="#DejaVuSans-36" x="63.623047"/>
       <use xlink:href="#DejaVuSans-30" x="127.246094"/>
      </g>
     </g>
    </g>
    <g id="xtick_10">
     <g id="line2d_27"/>
     <g id="text_25">
      <!-- 180 -->
      <g transform="translate(797.89625 346.330438) scale(0.1 -0.1)">
       <use xlink:href="#DejaVuSans-31"/>
       <use xlink:href="#DejaVuSans-38" x="63.623047"/>
       <use xlink:href="#DejaVuSans-30" x="127.246094"/>
      </g>
     </g>
    </g>
   </g>
   <g id="matplotlib.axis_4">
    <g id="ytick_8">
     <g id="line2d_28"/>
     <g id="text_26">
      <!-- 0.00 -->
      <g transform="translate(683.394375 339.031219) scale(0.1 -0.1)">
       <use xlink:href="#DejaVuSans-30"/>
       <use xlink:href="#DejaVuSans-2e" x="63.623047"/>
       <use xlink:href="#DejaVuSans-30" x="95.410156"/>
       <use xlink:href="#DejaVuSans-30" x="159.033203"/>
      </g>
     </g>
    </g>
    <g id="ytick_9">
     <g id="line2d_29"/>
     <g id="text_27">
      <!-- 0.02 -->
      <g transform="translate(683.394375 303.549619) scale(0.1 -0.1)">
       <use xlink:href="#DejaVuSans-30"/>
       <use xlink:href="#DejaVuSans-2e" x="63.623047"/>
       <use xlink:href="#DejaVuSans-30" x="95.410156"/>
       <use xlink:href="#DejaVuSans-32" x="159.033203"/>
      </g>
     </g>
    </g>
    <g id="ytick_10">
     <g id="line2d_30"/>
     <g id="text_28">
      <!-- 0.04 -->
      <g transform="translate(683.394375 268.068019) scale(0.1 -0.1)">
       <use xlink:href="#DejaVuSans-30"/>
       <use xlink:href="#DejaVuSans-2e" x="63.623047"/>
       <use xlink:href="#DejaVuSans-30" x="95.410156"/>
       <use xlink:href="#DejaVuSans-34" x="159.033203"/>
      </g>
     </g>
    </g>
    <g id="ytick_11">
     <g id="line2d_31"/>
     <g id="text_29">
      <!-- 0.06 -->
      <g transform="translate(683.394375 232.586419) scale(0.1 -0.1)">
       <use xlink:href="#DejaVuSans-30"/>
       <use xlink:href="#DejaVuSans-2e" x="63.623047"/>
       <use xlink:href="#DejaVuSans-30" x="95.410156"/>
       <use xlink:href="#DejaVuSans-36" x="159.033203"/>
      </g>
     </g>
    </g>
    <g id="ytick_12">
     <g id="line2d_32"/>
     <g id="text_30">
      <!-- 0.08 -->
      <g transform="translate(683.394375 197.104819) scale(0.1 -0.1)">
       <use xlink:href="#DejaVuSans-30"/>
       <use xlink:href="#DejaVuSans-2e" x="63.623047"/>
       <use xlink:href="#DejaVuSans-30" x="95.410156"/>
       <use xlink:href="#DejaVuSans-38" x="159.033203"/>
      </g>
     </g>
    </g>
    <g id="ytick_13">
     <g id="line2d_33"/>
     <g id="text_31">
      <!-- 0.10 -->
      <g transform="translate(683.394375 161.623219) scale(0.1 -0.1)">
       <use xlink:href="#DejaVuSans-30"/>
       <use xlink:href="#DejaVuSans-2e" x="63.623047"/>
       <use xlink:href="#DejaVuSans-31" x="95.410156"/>
       <use xlink:href="#DejaVuSans-30" x="159.033203"/>
      </g>
     </g>
    </g>
   </g>
   <g id="line2d_34">
    <path clip-path="url(#p66b37d3640)" style="fill: none; stroke: #1f77b4; stroke-width: 1.5; stroke-linecap: square"/>
    <g clip-path="url(#p66b37d3640)"/>
   </g>
   <g id="line2d_35">
    <path d="M 483.265712 -1 
L 512.6 93.520503 
L 551.912 141.756584 
L 591.224 169.217002 
L 630.536 187.773688 
L 669.848 200.586761 
L 709.16 210.803924 
L 748.472 218.862554 
L 787.784 225.216654 
L 827.096 230.566417 
" clip-path="url(#p66b37d3640)" style="fill: none; stroke: #ff7f0e; stroke-width: 1.5; stroke-linecap: square"/>
    <g clip-path="url(#p66b37d3640)">
     <use xlink:href="#m63c9b9360a" x="483.265712" y="-1" style="fill: #ff7f0e; stroke: #ff7f0e"/>
     <use xlink:href="#m63c9b9360a" x="512.6" y="93.520503" style="fill: #ff7f0e; stroke: #ff7f0e"/>
     <use xlink:href="#m63c9b9360a" x="551.912" y="141.756584" style="fill: #ff7f0e; stroke: #ff7f0e"/>
     <use xlink:href="#m63c9b9360a" x="591.224" y="169.217002" style="fill: #ff7f0e; stroke: #ff7f0e"/>
     <use xlink:href="#m63c9b9360a" x="630.536" y="187.773688" style="fill: #ff7f0e; stroke: #ff7f0e"/>
     <use xlink:href="#m63c9b9360a" x="669.848" y="200.586761" style="fill: #ff7f0e; stroke: #ff7f0e"/>
     <use xlink:href="#m63c9b9360a" x="709.16" y="210.803924" style="fill: #ff7f0e; stroke: #ff7f0e"/>
     <use xlink:href="#m63c9b9360a" x="748.472" y="218.862554" style="fill: #ff7f0e; stroke: #ff7f0e"/>
     <use xlink:href="#m63c9b9360a" x="787.784" y="225.216654" style="fill: #ff7f0e; stroke: #ff7f0e"/>
     <use xlink:href="#m63c9b9360a" x="827.096" y="230.566417" style="fill: #ff7f0e; stroke: #ff7f0e"/>
    </g>
   </g>
   <g id="line2d_36">
    <path d="M 473.288 76.842929 
L 512.6 171.263464 
L 551.912 205.749958 
L 591.224 224.828262 
L 630.536 237.265603 
L 669.848 245.942727 
L 709.16 252.536254 
L 748.472 257.713015 
L 787.784 261.813469 
L 827.096 265.265435 
" clip-path="url(#p66b37d3640)" style="fill: none; stroke: #2ca02c; stroke-width: 1.5; stroke-linecap: square"/>
    <g clip-path="url(#p66b37d3640)">
     <use xlink:href="#mdce02b1f93" x="473.288" y="76.842929" style="fill: #2ca02c; stroke: #2ca02c"/>
     <use xlink:href="#mdce02b1f93" x="512.6" y="171.263464" style="fill: #2ca02c; stroke: #2ca02c"/>
     <use xlink:href="#mdce02b1f93" x="551.912" y="205.749958" style="fill: #2ca02c; stroke: #2ca02c"/>
     <use xlink:href="#mdce02b1f93" x="591.224" y="224.828262" style="fill: #2ca02c; stroke: #2ca02c"/>
     <use xlink:href="#mdce02b1f93" x="630.536" y="237.265603" style="fill: #2ca02c; stroke: #2ca02c"/>
     <use xlink:href="#mdce02b1f93" x="669.848" y="245.942727" style="fill: #2ca02c; stroke: #2ca02c"/>
     <use xlink:href="#mdce02b1f93" x="709.16" y="252.536254" style="fill: #2ca02c; stroke: #2ca02c"/>
     <use xlink:href="#mdce02b1f93" x="748.472" y="257.713015" style="fill: #2ca02c; stroke: #2ca02c"/>
     <use xlink:href="#mdce02b1f93" x="787.784" y="261.813469" style="fill: #2ca02c; stroke: #2ca02c"/>
     <use xlink:href="#mdce02b1f93" x="827.096" y="265.265435" style="fill: #2ca02c; stroke: #2ca02c"/>
    </g>
   </g>
   <g id="line2d_37">
    <path d="M 473.288 127.820776 
L 512.6 205.647509 
L 551.912 233.162659 
L 591.224 248.328595 
L 630.536 258.295764 
L 669.848 265.236564 
L 709.16 270.401607 
L 748.472 274.412298 
L 787.784 277.60137 
L 827.096 280.264565 
" clip-path="url(#p66b37d3640)" style="fill: none; stroke: #d62728; stroke-width: 1.5; stroke-linecap: square"/>
    <g clip-path="url(#p66b37d3640)">
     <use xlink:href="#m5dbbb2a345" x="473.288" y="127.820776" style="fill: #d62728; stroke: #d62728"/>
     <use xlink:href="#m5dbbb2a345" x="512.6" y="205.647509" style="fill: #d62728; stroke: #d62728"/>
     <use xlink:href="#m5dbbb2a345" x="551.912" y="233.162659" style="fill: #d62728; stroke: #d62728"/>
     <use xlink:href="#m5dbbb2a345" x="591.224" y="248.328595" style="fill: #d62728; stroke: #d62728"/>
     <use xlink:href="#m5dbbb2a345" x="630.536" y="258.295764" style="fill: #d62728; stroke: #d62728"/>
     <use xlink:href="#m5dbbb2a345" x="669.848" y="265.236564" style="fill: #d62728; stroke: #d62728"/>
     <use xlink:href="#m5dbbb2a345" x="709.16" y="270.401607" style="fill: #d62728; stroke: #d62728"/>
     <use xlink:href="#m5dbbb2a345" x="748.472" y="274.412298" style="fill: #d62728; stroke: #d62728"/>
     <use xlink:href="#m5dbbb2a345" x="787.784" y="277.60137" style="fill: #d62728; stroke: #d62728"/>
     <use xlink:href="#m5dbbb2a345" x="827.096" y="280.264565" style="fill: #d62728; stroke: #d62728"/>
    </g>
   </g>
   <g id="line2d_38">
    <path d="M 473.288 159.639678 
L 512.6 226.40689 
L 551.912 249.784586 
L 591.224 262.554368 
L 630.536 270.86121 
L 669.848 276.649915 
L 709.16 280.957573 
L 748.472 284.274194 
L 787.784 286.929714 
L 827.096 289.164213 
" clip-path="url(#p66b37d3640)" style="fill: none; stroke: #9467bd; stroke-width: 1.5; stroke-linecap: square"/>
    <g clip-path="url(#p66b37d3640)">
     <use xlink:href="#m9074fd7f1f" x="473.288" y="159.639678" style="fill: #9467bd; stroke: #9467bd"/>
     <use xlink:href="#m9074fd7f1f" x="512.6" y="226.40689" style="fill: #9467bd; stroke: #9467bd"/>
     <use xlink:href="#m9074fd7f1f" x="551.912" y="249.784586" style="fill: #9467bd; stroke: #9467bd"/>
     <use xlink:href="#m9074fd7f1f" x="591.224" y="262.554368" style="fill: #9467bd; stroke: #9467bd"/>
     <use xlink:href="#m9074fd7f1f" x="630.536" y="270.86121" style="fill: #9467bd; stroke: #9467bd"/>
     <use xlink:href="#m9074fd7f1f" x="669.848" y="276.649915" style="fill: #9467bd; stroke: #9467bd"/>
     <use xlink:href="#m9074fd7f1f" x="709.16" y="280.957573" style="fill: #9467bd; stroke: #9467bd"/>
     <use xlink:href="#m9074fd7f1f" x="748.472" y="284.274194" style="fill: #9467bd; stroke: #9467bd"/>
     <use xlink:href="#m9074fd7f1f" x="787.784" y="286.929714" style="fill: #9467bd; stroke: #9467bd"/>
     <use xlink:href="#m9074fd7f1f" x="827.096" y="289.164213" style="fill: #9467bd; stroke: #9467bd"/>
    </g>
   </g>
   <g id="patch_12">
    <path d="M 709.16 335.232 
L 709.16 157.824 
" style="fill: none; stroke: #000000; stroke-width: 0.8; stroke-linejoin: miter; stroke-linecap: square"/>
   </g>
   <g id="patch_13">
    <path d="M 827.096 335.232 
L 827.096 157.824 
" style="fill: none; stroke: #000000; stroke-width: 0.8; stroke-linejoin: miter; stroke-linecap: square"/>
   </g>
   <g id="patch_14">
    <path d="M 709.16 335.232 
L 827.096 335.232 
" style="fill: none; stroke: #000000; stroke-width: 0.8; stroke-linejoin: miter; stroke-linecap: square"/>
   </g>
   <g id="patch_15">
    <path d="M 709.16 157.824 
L 827.096 157.824 
" style="fill: none; stroke: #000000; stroke-width: 0.8; stroke-linejoin: miter; stroke-linecap: square"/>
   </g>
  </g>
 </g>
 <defs>
  <clipPath id="p12dbacc063">
   <rect x="86.4" y="69.12" width="561.6" height="443.52"/>
  </clipPath>
  <clipPath id="p66b37d3640">
   <rect x="709.16" y="157.824" width="117.936" height="177.408"/>
  </clipPath>
 </defs>
</svg>
