<?xml version="1.0" encoding="utf-8" standalone="no"?>
<!DOCTYPE svg PUBLIC "-//W3C//DTD SVG 1.1//EN"
  "http://www.w3.org/Graphics/SVG/1.1/DTD/svg11.dtd">
<svg xmlns:xlink="http://www.w3.org/1999/xlink" width="864pt" height="576pt" viewBox="0 0 864 576" xmlns="http://www.w3.org/2000/svg" version="1.1">
 <metadata>
  <rdf:RDF xmlns:dc="http://purl.org/dc/elements/1.1/" xmlns:cc="http://creativecommons.org/ns#" xmlns:rdf="http://www.w3.org/1999/02/22-rdf-syntax-ns#">
   <cc:Work>
    <dc:type rdf:resource="http://purl.org/dc/dcmitype/StillImage"/>
    <dc:date>2024-06-12T07:31:31.780897</dc:date>
    <dc:format>image/svg+xml</dc:format>
    <dc:creator>
     <cc:Agent>
      <dc:title>Matplotlib v3.9.0, https://matplotlib.org/</dc:title>
     </cc:Agent>
    </dc:creator>
   </cc:Work>
  </rdf:RDF>
 </metadata>
 <defs>
  <style type="text/css">*{stroke-linejoin: round; stroke-linecap: butt}</style>
 </defs>
 <g id="figure_1">
  <g id="patch_1">
   <path d="M 0 576 
L 864 576 
L 864 0 
L 0 0 
z
" style="fill: #ffffff"/>
  </g>
  <g id="axes_1">
   <g id="patch_2">
    <path d="M 108 512.64 
L 777.6 512.64 
L 777.6 69.12 
L 108 69.12 
z
" style="fill: #ffffff"/>
   </g>
   <g id="matplotlib.axis_1">
    <g id="xtick_1">
     <g id="line2d_1">
      <defs>
       <path id="m3017886b0f" d="M 0 0 
L 0 3.5 
" style="stroke: #000000; stroke-width: 0.8"/>
      </defs>
      <g>
       <use xlink:href="#m3017886b0f" x="186.49378" y="512.64" style="stroke: #000000; stroke-width: 0.8"/>
      </g>
     </g>
     <g id="text_1">
      <!-- 25 -->
      <g transform="translate(180.13128 527.238438) scale(0.1 -0.1)">
       <defs>
        <path id="DejaVuSans-32" d="M 1228 531 
L 3431 531 
L 3431 0 
L 469 0 
L 469 531 
Q 828 903 1448 1529 
Q 2069 2156 2228 2338 
Q 2531 2678 2651 2914 
Q 2772 3150 2772 3378 
Q 2772 3750 2511 3984 
Q 2250 4219 1831 4219 
Q 1534 4219 1204 4116 
Q 875 4013 500 3803 
L 500 4441 
Q 881 4594 1212 4672 
Q 1544 4750 1819 4750 
Q 2544 4750 2975 4387 
Q 3406 4025 3406 3419 
Q 3406 3131 3298 2873 
Q 3191 2616 2906 2266 
Q 2828 2175 2409 1742 
Q 1991 1309 1228 531 
z
" transform="scale(0.015625)"/>
        <path id="DejaVuSans-35" d="M 691 4666 
L 3169 4666 
L 3169 4134 
L 1269 4134 
L 1269 2991 
Q 1406 3038 1543 3061 
Q 1681 3084 1819 3084 
Q 2600 3084 3056 2656 
Q 3513 2228 3513 1497 
Q 3513 744 3044 326 
Q 2575 -91 1722 -91 
Q 1428 -91 1123 -41 
Q 819 9 494 109 
L 494 744 
Q 775 591 1075 516 
Q 1375 441 1709 441 
Q 2250 441 2565 725 
Q 2881 1009 2881 1497 
Q 2881 1984 2565 2268 
Q 2250 2553 1709 2553 
Q 1456 2553 1204 2497 
Q 953 2441 691 2322 
L 691 4666 
z
" transform="scale(0.015625)"/>
       </defs>
       <use xlink:href="#DejaVuSans-32"/>
       <use xlink:href="#DejaVuSans-35" x="63.623047"/>
      </g>
     </g>
    </g>
    <g id="xtick_2">
     <g id="line2d_2">
      <g>
       <use xlink:href="#m3017886b0f" x="266.589474" y="512.64" style="stroke: #000000; stroke-width: 0.8"/>
      </g>
     </g>
     <g id="text_2">
      <!-- 50 -->
      <g transform="translate(260.226974 527.238438) scale(0.1 -0.1)">
       <defs>
        <path id="DejaVuSans-30" d="M 2034 4250 
Q 1547 4250 1301 3770 
Q 1056 3291 1056 2328 
Q 1056 1369 1301 889 
Q 1547 409 2034 409 
Q 2525 409 2770 889 
Q 3016 1369 3016 2328 
Q 3016 3291 2770 3770 
Q 2525 4250 2034 4250 
z
M 2034 4750 
Q 2819 4750 3233 4129 
Q 3647 3509 3647 2328 
Q 3647 1150 3233 529 
Q 2819 -91 2034 -91 
Q 1250 -91 836 529 
Q 422 1150 422 2328 
Q 422 3509 836 4129 
Q 1250 4750 2034 4750 
z
" transform="scale(0.015625)"/>
       </defs>
       <use xlink:href="#DejaVuSans-35"/>
       <use xlink:href="#DejaVuSans-30" x="63.623047"/>
      </g>
     </g>
    </g>
    <g id="xtick_3">
     <g id="line2d_3">
      <g>
       <use xlink:href="#m3017886b0f" x="346.685167" y="512.64" style="stroke: #000000; stroke-width: 0.8"/>
      </g>
     </g>
     <g id="text_3">
      <!-- 75 -->
      <g transform="translate(340.322667 527.238438) scale(0.1 -0.1)">
       <defs>
        <path id="DejaVuSans-37" d="M 525 4666 
L 3525 4666 
L 3525 4397 
L 1831 0 
L 1172 0 
L 2766 4134 
L 525 4134 
L 525 4666 
z
" transform="scale(0.015625)"/>
       </defs>
       <use xlink:href="#DejaVuSans-37"/>
       <use xlink:href="#DejaVuSans-35" x="63.623047"/>
      </g>
     </g>
    </g>
    <g id="xtick_4">
     <g id="line2d_4">
      <g>
       <use xlink:href="#m3017886b0f" x="426.780861" y="512.64" style="stroke: #000000; stroke-width: 0.8"/>
      </g>
     </g>
     <g id="text_4">
      <!-- 100 -->
      <g transform="translate(417.237111 527.238438) scale(0.1 -0.1)">
       <defs>
        <path id="DejaVuSans-31" d="M 794 531 
L 1825 531 
L 1825 4091 
L 703 3866 
L 703 4441 
L 1819 4666 
L 2450 4666 
L 2450 531 
L 3481 531 
L 3481 0 
L 794 0 
L 794 531 
z
" transform="scale(0.015625)"/>
       </defs>
       <use xlink:href="#DejaVuSans-31"/>
       <use xlink:href="#DejaVuSans-30" x="63.623047"/>
       <use xlink:href="#DejaVuSans-30" x="127.246094"/>
      </g>
     </g>
    </g>
    <g id="xtick_5">
     <g id="line2d_5">
      <g>
       <use xlink:href="#m3017886b0f" x="506.876555" y="512.64" style="stroke: #000000; stroke-width: 0.8"/>
      </g>
     </g>
     <g id="text_5">
      <!-- 125 -->
      <g transform="translate(497.332805 527.238438) scale(0.1 -0.1)">
       <use xlink:href="#DejaVuSans-31"/>
       <use xlink:href="#DejaVuSans-32" x="63.623047"/>
       <use xlink:href="#DejaVuSans-35" x="127.246094"/>
      </g>
     </g>
    </g>
    <g id="xtick_6">
     <g id="line2d_6">
      <g>
       <use xlink:href="#m3017886b0f" x="586.972249" y="512.64" style="stroke: #000000; stroke-width: 0.8"/>
      </g>
     </g>
     <g id="text_6">
      <!-- 150 -->
      <g transform="translate(577.428499 527.238438) scale(0.1 -0.1)">
       <use xlink:href="#DejaVuSans-31"/>
       <use xlink:href="#DejaVuSans-35" x="63.623047"/>
       <use xlink:href="#DejaVuSans-30" x="127.246094"/>
      </g>
     </g>
    </g>
    <g id="xtick_7">
     <g id="line2d_7">
      <g>
       <use xlink:href="#m3017886b0f" x="667.067943" y="512.64" style="stroke: #000000; stroke-width: 0.8"/>
      </g>
     </g>
     <g id="text_7">
      <!-- 175 -->
      <g transform="translate(657.524193 527.238438) scale(0.1 -0.1)">
       <use xlink:href="#DejaVuSans-31"/>
       <use xlink:href="#DejaVuSans-37" x="63.623047"/>
       <use xlink:href="#DejaVuSans-35" x="127.246094"/>
      </g>
     </g>
    </g>
    <g id="xtick_8">
     <g id="line2d_8">
      <g>
       <use xlink:href="#m3017886b0f" x="747.163636" y="512.64" style="stroke: #000000; stroke-width: 0.8"/>
      </g>
     </g>
     <g id="text_8">
      <!-- 200 -->
      <g transform="translate(737.619886 527.238438) scale(0.1 -0.1)">
       <use xlink:href="#DejaVuSans-32"/>
       <use xlink:href="#DejaVuSans-30" x="63.623047"/>
       <use xlink:href="#DejaVuSans-30" x="127.246094"/>
      </g>
     </g>
    </g>
    <g id="text_9">
     <!-- D -->
     <g transform="translate(438.95 540.916563) scale(0.1 -0.1)">
      <defs>
       <path id="DejaVuSans-44" d="M 1259 4147 
L 1259 519 
L 2022 519 
Q 2988 519 3436 956 
Q 3884 1394 3884 2338 
Q 3884 3275 3436 3711 
Q 2988 4147 2022 4147 
L 1259 4147 
z
M 628 4666 
L 1925 4666 
Q 3281 4666 3915 4102 
Q 4550 3538 4550 2338 
Q 4550 1131 3912 565 
Q 3275 0 1925 0 
L 628 0 
L 628 4666 
z
" transform="scale(0.015625)"/>
      </defs>
      <use xlink:href="#DejaVuSans-44"/>
     </g>
    </g>
   </g>
   <g id="matplotlib.axis_2">
    <g id="ytick_1">
     <g id="line2d_9">
      <defs>
       <path id="m395bb0d76a" d="M 0 0 
L -3.5 0 
" style="stroke: #000000; stroke-width: 0.8"/>
      </defs>
      <g>
       <use xlink:href="#m395bb0d76a" x="108" y="478.146326" style="stroke: #000000; stroke-width: 0.8"/>
      </g>
     </g>
     <g id="text_10">
      <!-- 0.4 -->
      <g transform="translate(85.096875 481.945545) scale(0.1 -0.1)">
       <defs>
        <path id="DejaVuSans-2e" d="M 684 794 
L 1344 794 
L 1344 0 
L 684 0 
L 684 794 
z
" transform="scale(0.015625)"/>
        <path id="DejaVuSans-34" d="M 2419 4116 
L 825 1625 
L 2419 1625 
L 2419 4116 
z
M 2253 4666 
L 3047 4666 
L 3047 1625 
L 3713 1625 
L 3713 1100 
L 3047 1100 
L 3047 0 
L 2419 0 
L 2419 1100 
L 313 1100 
L 313 1709 
L 2253 4666 
z
" transform="scale(0.015625)"/>
       </defs>
       <use xlink:href="#DejaVuSans-30"/>
       <use xlink:href="#DejaVuSans-2e" x="63.623047"/>
       <use xlink:href="#DejaVuSans-34" x="95.410156"/>
      </g>
     </g>
    </g>
    <g id="ytick_2">
     <g id="line2d_10">
      <g>
       <use xlink:href="#m395bb0d76a" x="108" y="379.627395" style="stroke: #000000; stroke-width: 0.8"/>
      </g>
     </g>
     <g id="text_11">
      <!-- 0.5 -->
      <g transform="translate(85.096875 383.426614) scale(0.1 -0.1)">
       <use xlink:href="#DejaVuSans-30"/>
       <use xlink:href="#DejaVuSans-2e" x="63.623047"/>
       <use xlink:href="#DejaVuSans-35" x="95.410156"/>
      </g>
     </g>
    </g>
    <g id="ytick_3">
     <g id="line2d_11">
      <g>
       <use xlink:href="#m395bb0d76a" x="108" y="281.108464" style="stroke: #000000; stroke-width: 0.8"/>
      </g>
     </g>
     <g id="text_12">
      <!-- 0.6 -->
      <g transform="translate(85.096875 284.907682) scale(0.1 -0.1)">
       <defs>
        <path id="DejaVuSans-36" d="M 2113 2584 
Q 1688 2584 1439 2293 
Q 1191 2003 1191 1497 
Q 1191 994 1439 701 
Q 1688 409 2113 409 
Q 2538 409 2786 701 
Q 3034 994 3034 1497 
Q 3034 2003 2786 2293 
Q 2538 2584 2113 2584 
z
M 3366 4563 
L 3366 3988 
Q 3128 4100 2886 4159 
Q 2644 4219 2406 4219 
Q 1781 4219 1451 3797 
Q 1122 3375 1075 2522 
Q 1259 2794 1537 2939 
Q 1816 3084 2150 3084 
Q 2853 3084 3261 2657 
Q 3669 2231 3669 1497 
Q 3669 778 3244 343 
Q 2819 -91 2113 -91 
Q 1303 -91 875 529 
Q 447 1150 447 2328 
Q 447 3434 972 4092 
Q 1497 4750 2381 4750 
Q 2619 4750 2861 4703 
Q 3103 4656 3366 4563 
z
" transform="scale(0.015625)"/>
       </defs>
       <use xlink:href="#DejaVuSans-30"/>
       <use xlink:href="#DejaVuSans-2e" x="63.623047"/>
       <use xlink:href="#DejaVuSans-36" x="95.410156"/>
      </g>
     </g>
    </g>
    <g id="ytick_4">
     <g id="line2d_12">
      <g>
       <use xlink:href="#m395bb0d76a" x="108" y="182.589532" style="stroke: #000000; stroke-width: 0.8"/>
      </g>
     </g>
     <g id="text_13">
      <!-- 0.7 -->
      <g transform="translate(85.096875 186.388751) scale(0.1 -0.1)">
       <use xlink:href="#DejaVuSans-30"/>
       <use xlink:href="#DejaVuSans-2e" x="63.623047"/>
       <use xlink:href="#DejaVuSans-37" x="95.410156"/>
      </g>
     </g>
    </g>
    <g id="ytick_5">
     <g id="line2d_13">
      <g>
       <use xlink:href="#m395bb0d76a" x="108" y="84.070601" style="stroke: #000000; stroke-width: 0.8"/>
      </g>
     </g>
     <g id="text_14">
      <!-- 0.8 -->
      <g transform="translate(85.096875 87.86982) scale(0.1 -0.1)">
       <defs>
        <path id="DejaVuSans-38" d="M 2034 2216 
Q 1584 2216 1326 1975 
Q 1069 1734 1069 1313 
Q 1069 891 1326 650 
Q 1584 409 2034 409 
Q 2484 409 2743 651 
Q 3003 894 3003 1313 
Q 3003 1734 2745 1975 
Q 2488 2216 2034 2216 
z
M 1403 2484 
Q 997 2584 770 2862 
Q 544 3141 544 3541 
Q 544 4100 942 4425 
Q 1341 4750 2034 4750 
Q 2731 4750 3128 4425 
Q 3525 4100 3525 3541 
Q 3525 3141 3298 2862 
Q 3072 2584 2669 2484 
Q 3125 2378 3379 2068 
Q 3634 1759 3634 1313 
Q 3634 634 3220 271 
Q 2806 -91 2034 -91 
Q 1263 -91 848 271 
Q 434 634 434 1313 
Q 434 1759 690 2068 
Q 947 2378 1403 2484 
z
M 1172 3481 
Q 1172 3119 1398 2916 
Q 1625 2713 2034 2713 
Q 2441 2713 2670 2916 
Q 2900 3119 2900 3481 
Q 2900 3844 2670 4047 
Q 2441 4250 2034 4250 
Q 1625 4250 1398 4047 
Q 1172 3844 1172 3481 
z
" transform="scale(0.015625)"/>
       </defs>
       <use xlink:href="#DejaVuSans-30"/>
       <use xlink:href="#DejaVuSans-2e" x="63.623047"/>
       <use xlink:href="#DejaVuSans-38" x="95.410156"/>
      </g>
     </g>
    </g>
    <g id="text_15">
     <!-- Unique Token Ratio -->
     <g transform="translate(79.017187 338.751875) rotate(-90) scale(0.1 -0.1)">
      <defs>
       <path id="DejaVuSans-55" d="M 556 4666 
L 1191 4666 
L 1191 1831 
Q 1191 1081 1462 751 
Q 1734 422 2344 422 
Q 2950 422 3222 751 
Q 3494 1081 3494 1831 
L 3494 4666 
L 4128 4666 
L 4128 1753 
Q 4128 841 3676 375 
Q 3225 -91 2344 -91 
Q 1459 -91 1007 375 
Q 556 841 556 1753 
L 556 4666 
z
" transform="scale(0.015625)"/>
       <path id="DejaVuSans-6e" d="M 3513 2113 
L 3513 0 
L 2938 0 
L 2938 2094 
Q 2938 2591 2744 2837 
Q 2550 3084 2163 3084 
Q 1697 3084 1428 2787 
Q 1159 2491 1159 1978 
L 1159 0 
L 581 0 
L 581 3500 
L 1159 3500 
L 1159 2956 
Q 1366 3272 1645 3428 
Q 1925 3584 2291 3584 
Q 2894 3584 3203 3211 
Q 3513 2838 3513 2113 
z
" transform="scale(0.015625)"/>
       <path id="DejaVuSans-69" d="M 603 3500 
L 1178 3500 
L 1178 0 
L 603 0 
L 603 3500 
z
M 603 4863 
L 1178 4863 
L 1178 4134 
L 603 4134 
L 603 4863 
z
" transform="scale(0.015625)"/>
       <path id="DejaVuSans-71" d="M 947 1747 
Q 947 1113 1208 752 
Q 1469 391 1925 391 
Q 2381 391 2643 752 
Q 2906 1113 2906 1747 
Q 2906 2381 2643 2742 
Q 2381 3103 1925 3103 
Q 1469 3103 1208 2742 
Q 947 2381 947 1747 
z
M 2906 525 
Q 2725 213 2448 61 
Q 2172 -91 1784 -91 
Q 1150 -91 751 415 
Q 353 922 353 1747 
Q 353 2572 751 3078 
Q 1150 3584 1784 3584 
Q 2172 3584 2448 3432 
Q 2725 3281 2906 2969 
L 2906 3500 
L 3481 3500 
L 3481 -1331 
L 2906 -1331 
L 2906 525 
z
" transform="scale(0.015625)"/>
       <path id="DejaVuSans-75" d="M 544 1381 
L 544 3500 
L 1119 3500 
L 1119 1403 
Q 1119 906 1312 657 
Q 1506 409 1894 409 
Q 2359 409 2629 706 
Q 2900 1003 2900 1516 
L 2900 3500 
L 3475 3500 
L 3475 0 
L 2900 0 
L 2900 538 
Q 2691 219 2414 64 
Q 2138 -91 1772 -91 
Q 1169 -91 856 284 
Q 544 659 544 1381 
z
M 1991 3584 
L 1991 3584 
z
" transform="scale(0.015625)"/>
       <path id="DejaVuSans-65" d="M 3597 1894 
L 3597 1613 
L 953 1613 
Q 991 1019 1311 708 
Q 1631 397 2203 397 
Q 2534 397 2845 478 
Q 3156 559 3463 722 
L 3463 178 
Q 3153 47 2828 -22 
Q 2503 -91 2169 -91 
Q 1331 -91 842 396 
Q 353 884 353 1716 
Q 353 2575 817 3079 
Q 1281 3584 2069 3584 
Q 2775 3584 3186 3129 
Q 3597 2675 3597 1894 
z
M 3022 2063 
Q 3016 2534 2758 2815 
Q 2500 3097 2075 3097 
Q 1594 3097 1305 2825 
Q 1016 2553 972 2059 
L 3022 2063 
z
" transform="scale(0.015625)"/>
       <path id="DejaVuSans-20" transform="scale(0.015625)"/>
       <path id="DejaVuSans-54" d="M -19 4666 
L 3928 4666 
L 3928 4134 
L 2272 4134 
L 2272 0 
L 1638 0 
L 1638 4134 
L -19 4134 
L -19 4666 
z
" transform="scale(0.015625)"/>
       <path id="DejaVuSans-6f" d="M 1959 3097 
Q 1497 3097 1228 2736 
Q 959 2375 959 1747 
Q 959 1119 1226 758 
Q 1494 397 1959 397 
Q 2419 397 2687 759 
Q 2956 1122 2956 1747 
Q 2956 2369 2687 2733 
Q 2419 3097 1959 3097 
z
M 1959 3584 
Q 2709 3584 3137 3096 
Q 3566 2609 3566 1747 
Q 3566 888 3137 398 
Q 2709 -91 1959 -91 
Q 1206 -91 779 398 
Q 353 888 353 1747 
Q 353 2609 779 3096 
Q 1206 3584 1959 3584 
z
" transform="scale(0.015625)"/>
       <path id="DejaVuSans-6b" d="M 581 4863 
L 1159 4863 
L 1159 1991 
L 2875 3500 
L 3609 3500 
L 1753 1863 
L 3688 0 
L 2938 0 
L 1159 1709 
L 1159 0 
L 581 0 
L 581 4863 
z
" transform="scale(0.015625)"/>
       <path id="DejaVuSans-52" d="M 2841 2188 
Q 3044 2119 3236 1894 
Q 3428 1669 3622 1275 
L 4263 0 
L 3584 0 
L 2988 1197 
Q 2756 1666 2539 1819 
Q 2322 1972 1947 1972 
L 1259 1972 
L 1259 0 
L 628 0 
L 628 4666 
L 2053 4666 
Q 2853 4666 3247 4331 
Q 3641 3997 3641 3322 
Q 3641 2881 3436 2590 
Q 3231 2300 2841 2188 
z
M 1259 4147 
L 1259 2491 
L 2053 2491 
Q 2509 2491 2742 2702 
Q 2975 2913 2975 3322 
Q 2975 3731 2742 3939 
Q 2509 4147 2053 4147 
L 1259 4147 
z
" transform="scale(0.015625)"/>
       <path id="DejaVuSans-61" d="M 2194 1759 
Q 1497 1759 1228 1600 
Q 959 1441 959 1056 
Q 959 750 1161 570 
Q 1363 391 1709 391 
Q 2188 391 2477 730 
Q 2766 1069 2766 1631 
L 2766 1759 
L 2194 1759 
z
M 3341 1997 
L 3341 0 
L 2766 0 
L 2766 531 
Q 2569 213 2275 61 
Q 1981 -91 1556 -91 
Q 1019 -91 701 211 
Q 384 513 384 1019 
Q 384 1609 779 1909 
Q 1175 2209 1959 2209 
L 2766 2209 
L 2766 2266 
Q 2766 2663 2505 2880 
Q 2244 3097 1772 3097 
Q 1472 3097 1187 3025 
Q 903 2953 641 2809 
L 641 3341 
Q 956 3463 1253 3523 
Q 1550 3584 1831 3584 
Q 2591 3584 2966 3190 
Q 3341 2797 3341 1997 
z
" transform="scale(0.015625)"/>
       <path id="DejaVuSans-74" d="M 1172 4494 
L 1172 3500 
L 2356 3500 
L 2356 3053 
L 1172 3053 
L 1172 1153 
Q 1172 725 1289 603 
Q 1406 481 1766 481 
L 2356 481 
L 2356 0 
L 1766 0 
Q 1100 0 847 248 
Q 594 497 594 1153 
L 594 3053 
L 172 3053 
L 172 3500 
L 594 3500 
L 594 4494 
L 1172 4494 
z
" transform="scale(0.015625)"/>
      </defs>
      <use xlink:href="#DejaVuSans-55"/>
      <use xlink:href="#DejaVuSans-6e" x="73.193359"/>
      <use xlink:href="#DejaVuSans-69" x="136.572266"/>
      <use xlink:href="#DejaVuSans-71" x="164.355469"/>
      <use xlink:href="#DejaVuSans-75" x="227.832031"/>
      <use xlink:href="#DejaVuSans-65" x="291.210938"/>
      <use xlink:href="#DejaVuSans-20" x="352.734375"/>
      <use xlink:href="#DejaVuSans-54" x="384.521484"/>
      <use xlink:href="#DejaVuSans-6f" x="428.605469"/>
      <use xlink:href="#DejaVuSans-6b" x="489.787109"/>
      <use xlink:href="#DejaVuSans-65" x="544.072266"/>
      <use xlink:href="#DejaVuSans-6e" x="605.595703"/>
      <use xlink:href="#DejaVuSans-20" x="668.974609"/>
      <use xlink:href="#DejaVuSans-52" x="700.761719"/>
      <use xlink:href="#DejaVuSans-61" x="767.994141"/>
      <use xlink:href="#DejaVuSans-74" x="829.273438"/>
      <use xlink:href="#DejaVuSans-69" x="868.482422"/>
      <use xlink:href="#DejaVuSans-6f" x="896.265625"/>
     </g>
    </g>
   </g>
   <g id="line2d_14">
    <path d="M 138.436364 89.28 
L 170.474641 115.782165 
L 202.512919 126.327495 
L 234.551196 134.754927 
L 266.589474 147.090954 
L 298.627751 157.037831 
L 330.666029 162.265589 
L 362.704306 165.227828 
L 394.742584 168.993028 
L 426.780861 172.956034 
L 458.819139 178.067224 
L 490.857416 179.920052 
L 522.895694 179.771205 
L 554.933971 179.894485 
L 586.972249 181.099842 
L 619.010526 182.785395 
L 651.048804 185.925695 
L 683.087081 189.005187 
L 715.125359 190.934092 
L 747.163636 191.27916 
" clip-path="url(#padbcb0acb2)" style="fill: none; stroke: #1f77b4; stroke-width: 1.5; stroke-linecap: square"/>
    <defs>
     <path id="m2424a338d2" d="M 0 3 
C 0.795609 3 1.55874 2.683901 2.12132 2.12132 
C 2.683901 1.55874 3 0.795609 3 0 
C 3 -0.795609 2.683901 -1.55874 2.12132 -2.12132 
C 1.55874 -2.683901 0.795609 -3 0 -3 
C -0.795609 -3 -1.55874 -2.683901 -2.12132 -2.12132 
C -2.683901 -1.55874 -3 -0.795609 -3 0 
C -3 0.795609 -2.683901 1.55874 -2.12132 2.12132 
C -1.55874 2.683901 -0.795609 3 0 3 
z
" style="stroke: #1f77b4"/>
    </defs>
    <g clip-path="url(#padbcb0acb2)">
     <use xlink:href="#m2424a338d2" x="138.436364" y="89.28" style="fill: #1f77b4; stroke: #1f77b4"/>
     <use xlink:href="#m2424a338d2" x="170.474641" y="115.782165" style="fill: #1f77b4; stroke: #1f77b4"/>
     <use xlink:href="#m2424a338d2" x="202.512919" y="126.327495" style="fill: #1f77b4; stroke: #1f77b4"/>
     <use xlink:href="#m2424a338d2" x="234.551196" y="134.754927" style="fill: #1f77b4; stroke: #1f77b4"/>
     <use xlink:href="#m2424a338d2" x="266.589474" y="147.090954" style="fill: #1f77b4; stroke: #1f77b4"/>
     <use xlink:href="#m2424a338d2" x="298.627751" y="157.037831" style="fill: #1f77b4; stroke: #1f77b4"/>
     <use xlink:href="#m2424a338d2" x="330.666029" y="162.265589" style="fill: #1f77b4; stroke: #1f77b4"/>
     <use xlink:href="#m2424a338d2" x="362.704306" y="165.227828" style="fill: #1f77b4; stroke: #1f77b4"/>
     <use xlink:href="#m2424a338d2" x="394.742584" y="168.993028" style="fill: #1f77b4; stroke: #1f77b4"/>
     <use xlink:href="#m2424a338d2" x="426.780861" y="172.956034" style="fill: #1f77b4; stroke: #1f77b4"/>
     <use xlink:href="#m2424a338d2" x="458.819139" y="178.067224" style="fill: #1f77b4; stroke: #1f77b4"/>
     <use xlink:href="#m2424a338d2" x="490.857416" y="179.920052" style="fill: #1f77b4; stroke: #1f77b4"/>
     <use xlink:href="#m2424a338d2" x="522.895694" y="179.771205" style="fill: #1f77b4; stroke: #1f77b4"/>
     <use xlink:href="#m2424a338d2" x="554.933971" y="179.894485" style="fill: #1f77b4; stroke: #1f77b4"/>
     <use xlink:href="#m2424a338d2" x="586.972249" y="181.099842" style="fill: #1f77b4; stroke: #1f77b4"/>
     <use xlink:href="#m2424a338d2" x="619.010526" y="182.785395" style="fill: #1f77b4; stroke: #1f77b4"/>
     <use xlink:href="#m2424a338d2" x="651.048804" y="185.925695" style="fill: #1f77b4; stroke: #1f77b4"/>
     <use xlink:href="#m2424a338d2" x="683.087081" y="189.005187" style="fill: #1f77b4; stroke: #1f77b4"/>
     <use xlink:href="#m2424a338d2" x="715.125359" y="190.934092" style="fill: #1f77b4; stroke: #1f77b4"/>
     <use xlink:href="#m2424a338d2" x="747.163636" y="191.27916" style="fill: #1f77b4; stroke: #1f77b4"/>
    </g>
   </g>
   <g id="line2d_15">
    <path d="M 138.436364 210.169029 
L 170.474641 251.164002 
L 202.512919 272.154267 
L 234.551196 287.0056 
L 266.589474 295.867057 
L 298.627751 304.387331 
L 330.666029 310.639375 
L 362.704306 315.736456 
L 394.742584 319.321748 
L 426.780861 323.002746 
L 458.819139 325.718168 
L 490.857416 328.657108 
L 522.895694 331.296458 
L 554.933971 333.1239 
L 586.972249 335.195646 
L 619.010526 337.036271 
L 651.048804 338.656804 
L 683.087081 340.021237 
L 715.125359 341.36849 
L 747.163636 342.71706 
" clip-path="url(#padbcb0acb2)" style="fill: none; stroke: #ff7f0e; stroke-width: 1.5; stroke-linecap: square"/>
    <defs>
     <path id="meb505ab8b4" d="M 0 3 
C 0.795609 3 1.55874 2.683901 2.12132 2.12132 
C 2.683901 1.55874 3 0.795609 3 0 
C 3 -0.795609 2.683901 -1.55874 2.12132 -2.12132 
C 1.55874 -2.683901 0.795609 -3 0 -3 
C -0.795609 -3 -1.55874 -2.683901 -2.12132 -2.12132 
C -2.683901 -1.55874 -3 -0.795609 -3 0 
C -3 0.795609 -2.683901 1.55874 -2.12132 2.12132 
C -1.55874 2.683901 -0.795609 3 0 3 
z
" style="stroke: #ff7f0e"/>
    </defs>
    <g clip-path="url(#padbcb0acb2)">
     <use xlink:href="#meb505ab8b4" x="138.436364" y="210.169029" style="fill: #ff7f0e; stroke: #ff7f0e"/>
     <use xlink:href="#meb505ab8b4" x="170.474641" y="251.164002" style="fill: #ff7f0e; stroke: #ff7f0e"/>
     <use xlink:href="#meb505ab8b4" x="202.512919" y="272.154267" style="fill: #ff7f0e; stroke: #ff7f0e"/>
     <use xlink:href="#meb505ab8b4" x="234.551196" y="287.0056" style="fill: #ff7f0e; stroke: #ff7f0e"/>
     <use xlink:href="#meb505ab8b4" x="266.589474" y="295.867057" style="fill: #ff7f0e; stroke: #ff7f0e"/>
     <use xlink:href="#meb505ab8b4" x="298.627751" y="304.387331" style="fill: #ff7f0e; stroke: #ff7f0e"/>
     <use xlink:href="#meb505ab8b4" x="330.666029" y="310.639375" style="fill: #ff7f0e; stroke: #ff7f0e"/>
     <use xlink:href="#meb505ab8b4" x="362.704306" y="315.736456" style="fill: #ff7f0e; stroke: #ff7f0e"/>
     <use xlink:href="#meb505ab8b4" x="394.742584" y="319.321748" style="fill: #ff7f0e; stroke: #ff7f0e"/>
     <use xlink:href="#meb505ab8b4" x="426.780861" y="323.002746" style="fill: #ff7f0e; stroke: #ff7f0e"/>
     <use xlink:href="#meb505ab8b4" x="458.819139" y="325.718168" style="fill: #ff7f0e; stroke: #ff7f0e"/>
     <use xlink:href="#meb505ab8b4" x="490.857416" y="328.657108" style="fill: #ff7f0e; stroke: #ff7f0e"/>
     <use xlink:href="#meb505ab8b4" x="522.895694" y="331.296458" style="fill: #ff7f0e; stroke: #ff7f0e"/>
     <use xlink:href="#meb505ab8b4" x="554.933971" y="333.1239" style="fill: #ff7f0e; stroke: #ff7f0e"/>
     <use xlink:href="#meb505ab8b4" x="586.972249" y="335.195646" style="fill: #ff7f0e; stroke: #ff7f0e"/>
     <use xlink:href="#meb505ab8b4" x="619.010526" y="337.036271" style="fill: #ff7f0e; stroke: #ff7f0e"/>
     <use xlink:href="#meb505ab8b4" x="651.048804" y="338.656804" style="fill: #ff7f0e; stroke: #ff7f0e"/>
     <use xlink:href="#meb505ab8b4" x="683.087081" y="340.021237" style="fill: #ff7f0e; stroke: #ff7f0e"/>
     <use xlink:href="#meb505ab8b4" x="715.125359" y="341.36849" style="fill: #ff7f0e; stroke: #ff7f0e"/>
     <use xlink:href="#meb505ab8b4" x="747.163636" y="342.71706" style="fill: #ff7f0e; stroke: #ff7f0e"/>
    </g>
   </g>
   <g id="line2d_16">
    <path d="M 138.436364 265.877537 
L 170.474641 307.060965 
L 202.512919 329.194481 
L 234.551196 343.484629 
L 266.589474 353.70929 
L 298.627751 361.815385 
L 330.666029 368.11635 
L 362.704306 373.603566 
L 394.742584 378.278524 
L 426.780861 382.390453 
L 458.819139 385.798014 
L 490.857416 388.723805 
L 522.895694 391.234395 
L 554.933971 393.692967 
L 586.972249 395.648448 
L 619.010526 397.599517 
L 651.048804 399.205967 
L 683.087081 400.489149 
L 715.125359 401.791512 
L 747.163636 403.051276 
" clip-path="url(#padbcb0acb2)" style="fill: none; stroke: #2ca02c; stroke-width: 1.5; stroke-linecap: square"/>
    <defs>
     <path id="mcde94c38f3" d="M 0 3 
C 0.795609 3 1.55874 2.683901 2.12132 2.12132 
C 2.683901 1.55874 3 0.795609 3 0 
C 3 -0.795609 2.683901 -1.55874 2.12132 -2.12132 
C 1.55874 -2.683901 0.795609 -3 0 -3 
C -0.795609 -3 -1.55874 -2.683901 -2.12132 -2.12132 
C -2.683901 -1.55874 -3 -0.795609 -3 0 
C -3 0.795609 -2.683901 1.55874 -2.12132 2.12132 
C -1.55874 2.683901 -0.795609 3 0 3 
z
" style="stroke: #2ca02c"/>
    </defs>
    <g clip-path="url(#padbcb0acb2)">
     <use xlink:href="#mcde94c38f3" x="138.436364" y="265.877537" style="fill: #2ca02c; stroke: #2ca02c"/>
     <use xlink:href="#mcde94c38f3" x="170.474641" y="307.060965" style="fill: #2ca02c; stroke: #2ca02c"/>
     <use xlink:href="#mcde94c38f3" x="202.512919" y="329.194481" style="fill: #2ca02c; stroke: #2ca02c"/>
     <use xlink:href="#mcde94c38f3" x="234.551196" y="343.484629" style="fill: #2ca02c; stroke: #2ca02c"/>
     <use xlink:href="#mcde94c38f3" x="266.589474" y="353.70929" style="fill: #2ca02c; stroke: #2ca02c"/>
     <use xlink:href="#mcde94c38f3" x="298.627751" y="361.815385" style="fill: #2ca02c; stroke: #2ca02c"/>
     <use xlink:href="#mcde94c38f3" x="330.666029" y="368.11635" style="fill: #2ca02c; stroke: #2ca02c"/>
     <use xlink:href="#mcde94c38f3" x="362.704306" y="373.603566" style="fill: #2ca02c; stroke: #2ca02c"/>
     <use xlink:href="#mcde94c38f3" x="394.742584" y="378.278524" style="fill: #2ca02c; stroke: #2ca02c"/>
     <use xlink:href="#mcde94c38f3" x="426.780861" y="382.390453" style="fill: #2ca02c; stroke: #2ca02c"/>
     <use xlink:href="#mcde94c38f3" x="458.819139" y="385.798014" style="fill: #2ca02c; stroke: #2ca02c"/>
     <use xlink:href="#mcde94c38f3" x="490.857416" y="388.723805" style="fill: #2ca02c; stroke: #2ca02c"/>
     <use xlink:href="#mcde94c38f3" x="522.895694" y="391.234395" style="fill: #2ca02c; stroke: #2ca02c"/>
     <use xlink:href="#mcde94c38f3" x="554.933971" y="393.692967" style="fill: #2ca02c; stroke: #2ca02c"/>
     <use xlink:href="#mcde94c38f3" x="586.972249" y="395.648448" style="fill: #2ca02c; stroke: #2ca02c"/>
     <use xlink:href="#mcde94c38f3" x="619.010526" y="397.599517" style="fill: #2ca02c; stroke: #2ca02c"/>
     <use xlink:href="#mcde94c38f3" x="651.048804" y="399.205967" style="fill: #2ca02c; stroke: #2ca02c"/>
     <use xlink:href="#mcde94c38f3" x="683.087081" y="400.489149" style="fill: #2ca02c; stroke: #2ca02c"/>
     <use xlink:href="#mcde94c38f3" x="715.125359" y="401.791512" style="fill: #2ca02c; stroke: #2ca02c"/>
     <use xlink:href="#mcde94c38f3" x="747.163636" y="403.051276" style="fill: #2ca02c; stroke: #2ca02c"/>
    </g>
   </g>
   <g id="line2d_17">
    <path d="M 138.436364 299.828083 
L 170.474641 343.374744 
L 202.512919 366.040303 
L 234.551196 380.88726 
L 266.589474 391.453885 
L 298.627751 400.134919 
L 330.666029 406.59474 
L 362.704306 412.142149 
L 394.742584 416.991173 
L 426.780861 421.219654 
L 458.819139 424.746141 
L 490.857416 427.839954 
L 522.895694 430.581376 
L 554.933971 433.05149 
L 586.972249 435.14418 
L 619.010526 437.093902 
L 651.048804 438.705867 
L 683.087081 440.054256 
L 715.125359 441.483754 
L 747.163636 442.738799 
" clip-path="url(#padbcb0acb2)" style="fill: none; stroke: #d62728; stroke-width: 1.5; stroke-linecap: square"/>
    <defs>
     <path id="m4f7d51bd44" d="M 0 3 
C 0.795609 3 1.55874 2.683901 2.12132 2.12132 
C 2.683901 1.55874 3 0.795609 3 0 
C 3 -0.795609 2.683901 -1.55874 2.12132 -2.12132 
C 1.55874 -2.683901 0.795609 -3 0 -3 
C -0.795609 -3 -1.55874 -2.683901 -2.12132 -2.12132 
C -2.683901 -1.55874 -3 -0.795609 -3 0 
C -3 0.795609 -2.683901 1.55874 -2.12132 2.12132 
C -1.55874 2.683901 -0.795609 3 0 3 
z
" style="stroke: #d62728"/>
    </defs>
    <g clip-path="url(#padbcb0acb2)">
     <use xlink:href="#m4f7d51bd44" x="138.436364" y="299.828083" style="fill: #d62728; stroke: #d62728"/>
     <use xlink:href="#m4f7d51bd44" x="170.474641" y="343.374744" style="fill: #d62728; stroke: #d62728"/>
     <use xlink:href="#m4f7d51bd44" x="202.512919" y="366.040303" style="fill: #d62728; stroke: #d62728"/>
     <use xlink:href="#m4f7d51bd44" x="234.551196" y="380.88726" style="fill: #d62728; stroke: #d62728"/>
     <use xlink:href="#m4f7d51bd44" x="266.589474" y="391.453885" style="fill: #d62728; stroke: #d62728"/>
     <use xlink:href="#m4f7d51bd44" x="298.627751" y="400.134919" style="fill: #d62728; stroke: #d62728"/>
     <use xlink:href="#m4f7d51bd44" x="330.666029" y="406.59474" style="fill: #d62728; stroke: #d62728"/>
     <use xlink:href="#m4f7d51bd44" x="362.704306" y="412.142149" style="fill: #d62728; stroke: #d62728"/>
     <use xlink:href="#m4f7d51bd44" x="394.742584" y="416.991173" style="fill: #d62728; stroke: #d62728"/>
     <use xlink:href="#m4f7d51bd44" x="426.780861" y="421.219654" style="fill: #d62728; stroke: #d62728"/>
     <use xlink:href="#m4f7d51bd44" x="458.819139" y="424.746141" style="fill: #d62728; stroke: #d62728"/>
     <use xlink:href="#m4f7d51bd44" x="490.857416" y="427.839954" style="fill: #d62728; stroke: #d62728"/>
     <use xlink:href="#m4f7d51bd44" x="522.895694" y="430.581376" style="fill: #d62728; stroke: #d62728"/>
     <use xlink:href="#m4f7d51bd44" x="554.933971" y="433.05149" style="fill: #d62728; stroke: #d62728"/>
     <use xlink:href="#m4f7d51bd44" x="586.972249" y="435.14418" style="fill: #d62728; stroke: #d62728"/>
     <use xlink:href="#m4f7d51bd44" x="619.010526" y="437.093902" style="fill: #d62728; stroke: #d62728"/>
     <use xlink:href="#m4f7d51bd44" x="651.048804" y="438.705867" style="fill: #d62728; stroke: #d62728"/>
     <use xlink:href="#m4f7d51bd44" x="683.087081" y="440.054256" style="fill: #d62728; stroke: #d62728"/>
     <use xlink:href="#m4f7d51bd44" x="715.125359" y="441.483754" style="fill: #d62728; stroke: #d62728"/>
     <use xlink:href="#m4f7d51bd44" x="747.163636" y="442.738799" style="fill: #d62728; stroke: #d62728"/>
    </g>
   </g>
   <g id="line2d_18">
    <path d="M 138.436364 328.010612 
L 170.474641 371.01127 
L 202.512919 393.762919 
L 234.551196 408.808704 
L 266.589474 419.449847 
L 298.627751 428.038457 
L 330.666029 434.646585 
L 362.704306 440.240441 
L 394.742584 445.07818 
L 426.780861 449.309068 
L 458.819139 452.73055 
L 490.857416 455.716643 
L 522.895694 458.432306 
L 554.933971 460.870543 
L 586.972249 463.054052 
L 619.010526 465.07765 
L 651.048804 466.701989 
L 683.087081 468.109266 
L 715.125359 469.612368 
L 747.163636 470.924707 
" clip-path="url(#padbcb0acb2)" style="fill: none; stroke: #9467bd; stroke-width: 1.5; stroke-linecap: square"/>
    <defs>
     <path id="ma2d11ccec6" d="M 0 3 
C 0.795609 3 1.55874 2.683901 2.12132 2.12132 
C 2.683901 1.55874 3 0.795609 3 0 
C 3 -0.795609 2.683901 -1.55874 2.12132 -2.12132 
C 1.55874 -2.683901 0.795609 -3 0 -3 
C -0.795609 -3 -1.55874 -2.683901 -2.12132 -2.12132 
C -2.683901 -1.55874 -3 -0.795609 -3 0 
C -3 0.795609 -2.683901 1.55874 -2.12132 2.12132 
C -1.55874 2.683901 -0.795609 3 0 3 
z
" style="stroke: #9467bd"/>
    </defs>
    <g clip-path="url(#padbcb0acb2)">
     <use xlink:href="#ma2d11ccec6" x="138.436364" y="328.010612" style="fill: #9467bd; stroke: #9467bd"/>
     <use xlink:href="#ma2d11ccec6" x="170.474641" y="371.01127" style="fill: #9467bd; stroke: #9467bd"/>
     <use xlink:href="#ma2d11ccec6" x="202.512919" y="393.762919" style="fill: #9467bd; stroke: #9467bd"/>
     <use xlink:href="#ma2d11ccec6" x="234.551196" y="408.808704" style="fill: #9467bd; stroke: #9467bd"/>
     <use xlink:href="#ma2d11ccec6" x="266.589474" y="419.449847" style="fill: #9467bd; stroke: #9467bd"/>
     <use xlink:href="#ma2d11ccec6" x="298.627751" y="428.038457" style="fill: #9467bd; stroke: #9467bd"/>
     <use xlink:href="#ma2d11ccec6" x="330.666029" y="434.646585" style="fill: #9467bd; stroke: #9467bd"/>
     <use xlink:href="#ma2d11ccec6" x="362.704306" y="440.240441" style="fill: #9467bd; stroke: #9467bd"/>
     <use xlink:href="#ma2d11ccec6" x="394.742584" y="445.07818" style="fill: #9467bd; stroke: #9467bd"/>
     <use xlink:href="#ma2d11ccec6" x="426.780861" y="449.309068" style="fill: #9467bd; stroke: #9467bd"/>
     <use xlink:href="#ma2d11ccec6" x="458.819139" y="452.73055" style="fill: #9467bd; stroke: #9467bd"/>
     <use xlink:href="#ma2d11ccec6" x="490.857416" y="455.716643" style="fill: #9467bd; stroke: #9467bd"/>
     <use xlink:href="#ma2d11ccec6" x="522.895694" y="458.432306" style="fill: #9467bd; stroke: #9467bd"/>
     <use xlink:href="#ma2d11ccec6" x="554.933971" y="460.870543" style="fill: #9467bd; stroke: #9467bd"/>
     <use xlink:href="#ma2d11ccec6" x="586.972249" y="463.054052" style="fill: #9467bd; stroke: #9467bd"/>
     <use xlink:href="#ma2d11ccec6" x="619.010526" y="465.07765" style="fill: #9467bd; stroke: #9467bd"/>
     <use xlink:href="#ma2d11ccec6" x="651.048804" y="466.701989" style="fill: #9467bd; stroke: #9467bd"/>
     <use xlink:href="#ma2d11ccec6" x="683.087081" y="468.109266" style="fill: #9467bd; stroke: #9467bd"/>
     <use xlink:href="#ma2d11ccec6" x="715.125359" y="469.612368" style="fill: #9467bd; stroke: #9467bd"/>
     <use xlink:href="#ma2d11ccec6" x="747.163636" y="470.924707" style="fill: #9467bd; stroke: #9467bd"/>
    </g>
   </g>
   <g id="line2d_19">
    <path d="M 138.436364 350.518248 
L 170.474641 393.911115 
L 202.512919 416.350851 
L 234.551196 431.217233 
L 266.589474 441.731383 
L 298.627751 450.158283 
L 330.666029 456.744413 
L 362.704306 462.36086 
L 394.742584 467.125636 
L 426.780861 471.266788 
L 458.819139 474.566967 
L 490.857416 477.545611 
L 522.895694 480.180378 
L 554.933971 482.529722 
L 586.972249 484.660303 
L 619.010526 486.712571 
L 651.048804 488.409522 
L 683.087081 489.802881 
L 715.125359 491.297669 
L 747.163636 492.48 
" clip-path="url(#padbcb0acb2)" style="fill: none; stroke: #8c564b; stroke-width: 1.5; stroke-linecap: square"/>
    <defs>
     <path id="mc55d9f9317" d="M 0 3 
C 0.795609 3 1.55874 2.683901 2.12132 2.12132 
C 2.683901 1.55874 3 0.795609 3 0 
C 3 -0.795609 2.683901 -1.55874 2.12132 -2.12132 
C 1.55874 -2.683901 0.795609 -3 0 -3 
C -0.795609 -3 -1.55874 -2.683901 -2.12132 -2.12132 
C -2.683901 -1.55874 -3 -0.795609 -3 0 
C -3 0.795609 -2.683901 1.55874 -2.12132 2.12132 
C -1.55874 2.683901 -0.795609 3 0 3 
z
" style="stroke: #8c564b"/>
    </defs>
    <g clip-path="url(#padbcb0acb2)">
     <use xlink:href="#mc55d9f9317" x="138.436364" y="350.518248" style="fill: #8c564b; stroke: #8c564b"/>
     <use xlink:href="#mc55d9f9317" x="170.474641" y="393.911115" style="fill: #8c564b; stroke: #8c564b"/>
     <use xlink:href="#mc55d9f9317" x="202.512919" y="416.350851" style="fill: #8c564b; stroke: #8c564b"/>
     <use xlink:href="#mc55d9f9317" x="234.551196" y="431.217233" style="fill: #8c564b; stroke: #8c564b"/>
     <use xlink:href="#mc55d9f9317" x="266.589474" y="441.731383" style="fill: #8c564b; stroke: #8c564b"/>
     <use xlink:href="#mc55d9f9317" x="298.627751" y="450.158283" style="fill: #8c564b; stroke: #8c564b"/>
     <use xlink:href="#mc55d9f9317" x="330.666029" y="456.744413" style="fill: #8c564b; stroke: #8c564b"/>
     <use xlink:href="#mc55d9f9317" x="362.704306" y="462.36086" style="fill: #8c564b; stroke: #8c564b"/>
     <use xlink:href="#mc55d9f9317" x="394.742584" y="467.125636" style="fill: #8c564b; stroke: #8c564b"/>
     <use xlink:href="#mc55d9f9317" x="426.780861" y="471.266788" style="fill: #8c564b; stroke: #8c564b"/>
     <use xlink:href="#mc55d9f9317" x="458.819139" y="474.566967" style="fill: #8c564b; stroke: #8c564b"/>
     <use xlink:href="#mc55d9f9317" x="490.857416" y="477.545611" style="fill: #8c564b; stroke: #8c564b"/>
     <use xlink:href="#mc55d9f9317" x="522.895694" y="480.180378" style="fill: #8c564b; stroke: #8c564b"/>
     <use xlink:href="#mc55d9f9317" x="554.933971" y="482.529722" style="fill: #8c564b; stroke: #8c564b"/>
     <use xlink:href="#mc55d9f9317" x="586.972249" y="484.660303" style="fill: #8c564b; stroke: #8c564b"/>
     <use xlink:href="#mc55d9f9317" x="619.010526" y="486.712571" style="fill: #8c564b; stroke: #8c564b"/>
     <use xlink:href="#mc55d9f9317" x="651.048804" y="488.409522" style="fill: #8c564b; stroke: #8c564b"/>
     <use xlink:href="#mc55d9f9317" x="683.087081" y="489.802881" style="fill: #8c564b; stroke: #8c564b"/>
     <use xlink:href="#mc55d9f9317" x="715.125359" y="491.297669" style="fill: #8c564b; stroke: #8c564b"/>
     <use xlink:href="#mc55d9f9317" x="747.163636" y="492.48" style="fill: #8c564b; stroke: #8c564b"/>
    </g>
   </g>
   <g id="patch_3">
    <path d="M 108 512.64 
L 108 69.12 
" style="fill: none; stroke: #000000; stroke-width: 0.8; stroke-linejoin: miter; stroke-linecap: square"/>
   </g>
   <g id="patch_4">
    <path d="M 777.6 512.64 
L 777.6 69.12 
" style="fill: none; stroke: #000000; stroke-width: 0.8; stroke-linejoin: miter; stroke-linecap: square"/>
   </g>
   <g id="patch_5">
    <path d="M 108 512.64 
L 777.6 512.64 
" style="fill: none; stroke: #000000; stroke-width: 0.8; stroke-linejoin: miter; stroke-linecap: square"/>
   </g>
   <g id="patch_6">
    <path d="M 108 69.12 
L 777.6 69.12 
" style="fill: none; stroke: #000000; stroke-width: 0.8; stroke-linejoin: miter; stroke-linecap: square"/>
   </g>
   <g id="text_16">
    <!-- Unique Token Ratio vs. D for Different B -->
    <g transform="translate(323.867813 63.12) scale(0.12 -0.12)">
     <defs>
      <path id="DejaVuSans-76" d="M 191 3500 
L 800 3500 
L 1894 563 
L 2988 3500 
L 3597 3500 
L 2284 0 
L 1503 0 
L 191 3500 
z
" transform="scale(0.015625)"/>
      <path id="DejaVuSans-73" d="M 2834 3397 
L 2834 2853 
Q 2591 2978 2328 3040 
Q 2066 3103 1784 3103 
Q 1356 3103 1142 2972 
Q 928 2841 928 2578 
Q 928 2378 1081 2264 
Q 1234 2150 1697 2047 
L 1894 2003 
Q 2506 1872 2764 1633 
Q 3022 1394 3022 966 
Q 3022 478 2636 193 
Q 2250 -91 1575 -91 
Q 1294 -91 989 -36 
Q 684 19 347 128 
L 347 722 
Q 666 556 975 473 
Q 1284 391 1588 391 
Q 1994 391 2212 530 
Q 2431 669 2431 922 
Q 2431 1156 2273 1281 
Q 2116 1406 1581 1522 
L 1381 1569 
Q 847 1681 609 1914 
Q 372 2147 372 2553 
Q 372 3047 722 3315 
Q 1072 3584 1716 3584 
Q 2034 3584 2315 3537 
Q 2597 3491 2834 3397 
z
" transform="scale(0.015625)"/>
      <path id="DejaVuSans-66" d="M 2375 4863 
L 2375 4384 
L 1825 4384 
Q 1516 4384 1395 4259 
Q 1275 4134 1275 3809 
L 1275 3500 
L 2222 3500 
L 2222 3053 
L 1275 3053 
L 1275 0 
L 697 0 
L 697 3053 
L 147 3053 
L 147 3500 
L 697 3500 
L 697 3744 
Q 697 4328 969 4595 
Q 1241 4863 1831 4863 
L 2375 4863 
z
" transform="scale(0.015625)"/>
      <path id="DejaVuSans-72" d="M 2631 2963 
Q 2534 3019 2420 3045 
Q 2306 3072 2169 3072 
Q 1681 3072 1420 2755 
Q 1159 2438 1159 1844 
L 1159 0 
L 581 0 
L 581 3500 
L 1159 3500 
L 1159 2956 
Q 1341 3275 1631 3429 
Q 1922 3584 2338 3584 
Q 2397 3584 2469 3576 
Q 2541 3569 2628 3553 
L 2631 2963 
z
" transform="scale(0.015625)"/>
      <path id="DejaVuSans-42" d="M 1259 2228 
L 1259 519 
L 2272 519 
Q 2781 519 3026 730 
Q 3272 941 3272 1375 
Q 3272 1813 3026 2020 
Q 2781 2228 2272 2228 
L 1259 2228 
z
M 1259 4147 
L 1259 2741 
L 2194 2741 
Q 2656 2741 2882 2914 
Q 3109 3088 3109 3444 
Q 3109 3797 2882 3972 
Q 2656 4147 2194 4147 
L 1259 4147 
z
M 628 4666 
L 2241 4666 
Q 2963 4666 3353 4366 
Q 3744 4066 3744 3513 
Q 3744 3084 3544 2831 
Q 3344 2578 2956 2516 
Q 3422 2416 3680 2098 
Q 3938 1781 3938 1306 
Q 3938 681 3513 340 
Q 3088 0 2303 0 
L 628 0 
L 628 4666 
z
" transform="scale(0.015625)"/>
     </defs>
     <use xlink:href="#DejaVuSans-55"/>
     <use xlink:href="#DejaVuSans-6e" x="73.193359"/>
     <use xlink:href="#DejaVuSans-69" x="136.572266"/>
     <use xlink:href="#DejaVuSans-71" x="164.355469"/>
     <use xlink:href="#DejaVuSans-75" x="227.832031"/>
     <use xlink:href="#DejaVuSans-65" x="291.210938"/>
     <use xlink:href="#DejaVuSans-20" x="352.734375"/>
     <use xlink:href="#DejaVuSans-54" x="384.521484"/>
     <use xlink:href="#DejaVuSans-6f" x="428.605469"/>
     <use xlink:href="#DejaVuSans-6b" x="489.787109"/>
     <use xlink:href="#DejaVuSans-65" x="544.072266"/>
     <use xlink:href="#DejaVuSans-6e" x="605.595703"/>
     <use xlink:href="#DejaVuSans-20" x="668.974609"/>
     <use xlink:href="#DejaVuSans-52" x="700.761719"/>
     <use xlink:href="#DejaVuSans-61" x="767.994141"/>
     <use xlink:href="#DejaVuSans-74" x="829.273438"/>
     <use xlink:href="#DejaVuSans-69" x="868.482422"/>
     <use xlink:href="#DejaVuSans-6f" x="896.265625"/>
     <use xlink:href="#DejaVuSans-20" x="957.447266"/>
     <use xlink:href="#DejaVuSans-76" x="989.234375"/>
     <use xlink:href="#DejaVuSans-73" x="1048.414062"/>
     <use xlink:href="#DejaVuSans-2e" x="1100.513672"/>
     <use xlink:href="#DejaVuSans-20" x="1132.300781"/>
     <use xlink:href="#DejaVuSans-44" x="1164.087891"/>
     <use xlink:href="#DejaVuSans-20" x="1241.089844"/>
     <use xlink:href="#DejaVuSans-66" x="1272.876953"/>
     <use xlink:href="#DejaVuSans-6f" x="1308.082031"/>
     <use xlink:href="#DejaVuSans-72" x="1369.263672"/>
     <use xlink:href="#DejaVuSans-20" x="1410.376953"/>
     <use xlink:href="#DejaVuSans-44" x="1442.164062"/>
     <use xlink:href="#DejaVuSans-69" x="1519.166016"/>
     <use xlink:href="#DejaVuSans-66" x="1546.949219"/>
     <use xlink:href="#DejaVuSans-66" x="1582.154297"/>
     <use xlink:href="#DejaVuSans-65" x="1617.359375"/>
     <use xlink:href="#DejaVuSans-72" x="1678.882812"/>
     <use xlink:href="#DejaVuSans-65" x="1717.746094"/>
     <use xlink:href="#DejaVuSans-6e" x="1779.269531"/>
     <use xlink:href="#DejaVuSans-74" x="1842.648438"/>
     <use xlink:href="#DejaVuSans-20" x="1881.857422"/>
     <use xlink:href="#DejaVuSans-42" x="1913.644531"/>
    </g>
   </g>
   <g id="legend_1">
    <g id="patch_7">
     <path d="M 691.546875 165.18875 
L 770.6 165.18875 
Q 772.6 165.18875 772.6 163.18875 
L 772.6 76.12 
Q 772.6 74.12 770.6 74.12 
L 691.546875 74.12 
Q 689.546875 74.12 689.546875 76.12 
L 689.546875 163.18875 
Q 689.546875 165.18875 691.546875 165.18875 
z
" style="fill: #ffffff; opacity: 0.8; stroke: #cccccc; stroke-linejoin: miter"/>
    </g>
    <g id="line2d_20">
     <path d="M 693.546875 82.218438 
L 703.546875 82.218438 
L 713.546875 82.218438 
" style="fill: none; stroke: #1f77b4; stroke-width: 1.5; stroke-linecap: square"/>
     <g>
      <use xlink:href="#m2424a338d2" x="703.546875" y="82.218438" style="fill: #1f77b4; stroke: #1f77b4"/>
     </g>
    </g>
    <g id="text_17">
     <!-- B=250 -->
     <g transform="translate(721.546875 85.718438) scale(0.1 -0.1)">
      <defs>
       <path id="DejaVuSans-3d" d="M 678 2906 
L 4684 2906 
L 4684 2381 
L 678 2381 
L 678 2906 
z
M 678 1631 
L 4684 1631 
L 4684 1100 
L 678 1100 
L 678 1631 
z
" transform="scale(0.015625)"/>
      </defs>
      <use xlink:href="#DejaVuSans-42"/>
      <use xlink:href="#DejaVuSans-3d" x="68.603516"/>
      <use xlink:href="#DejaVuSans-32" x="152.392578"/>
      <use xlink:href="#DejaVuSans-35" x="216.015625"/>
      <use xlink:href="#DejaVuSans-30" x="279.638672"/>
     </g>
    </g>
    <g id="line2d_21">
     <path d="M 693.546875 96.896563 
L 703.546875 96.896563 
L 713.546875 96.896563 
" style="fill: none; stroke: #ff7f0e; stroke-width: 1.5; stroke-linecap: square"/>
     <g>
      <use xlink:href="#meb505ab8b4" x="703.546875" y="96.896563" style="fill: #ff7f0e; stroke: #ff7f0e"/>
     </g>
    </g>
    <g id="text_18">
     <!-- B=4250 -->
     <g transform="translate(721.546875 100.396563) scale(0.1 -0.1)">
      <use xlink:href="#DejaVuSans-42"/>
      <use xlink:href="#DejaVuSans-3d" x="68.603516"/>
      <use xlink:href="#DejaVuSans-34" x="152.392578"/>
      <use xlink:href="#DejaVuSans-32" x="216.015625"/>
      <use xlink:href="#DejaVuSans-35" x="279.638672"/>
      <use xlink:href="#DejaVuSans-30" x="343.261719"/>
     </g>
    </g>
    <g id="line2d_22">
     <path d="M 693.546875 111.574688 
L 703.546875 111.574688 
L 713.546875 111.574688 
" style="fill: none; stroke: #2ca02c; stroke-width: 1.5; stroke-linecap: square"/>
     <g>
      <use xlink:href="#mcde94c38f3" x="703.546875" y="111.574688" style="fill: #2ca02c; stroke: #2ca02c"/>
     </g>
    </g>
    <g id="text_19">
     <!-- B=8250 -->
     <g transform="translate(721.546875 115.074688) scale(0.1 -0.1)">
      <use xlink:href="#DejaVuSans-42"/>
      <use xlink:href="#DejaVuSans-3d" x="68.603516"/>
      <use xlink:href="#DejaVuSans-38" x="152.392578"/>
      <use xlink:href="#DejaVuSans-32" x="216.015625"/>
      <use xlink:href="#DejaVuSans-35" x="279.638672"/>
      <use xlink:href="#DejaVuSans-30" x="343.261719"/>
     </g>
    </g>
    <g id="line2d_23">
     <path d="M 693.546875 126.252813 
L 703.546875 126.252813 
L 713.546875 126.252813 
" style="fill: none; stroke: #d62728; stroke-width: 1.5; stroke-linecap: square"/>
     <g>
      <use xlink:href="#m4f7d51bd44" x="703.546875" y="126.252813" style="fill: #d62728; stroke: #d62728"/>
     </g>
    </g>
    <g id="text_20">
     <!-- B=12250 -->
     <g transform="translate(721.546875 129.752813) scale(0.1 -0.1)">
      <use xlink:href="#DejaVuSans-42"/>
      <use xlink:href="#DejaVuSans-3d" x="68.603516"/>
      <use xlink:href="#DejaVuSans-31" x="152.392578"/>
      <use xlink:href="#DejaVuSans-32" x="216.015625"/>
      <use xlink:href="#DejaVuSans-32" x="279.638672"/>
      <use xlink:href="#DejaVuSans-35" x="343.261719"/>
      <use xlink:href="#DejaVuSans-30" x="406.884766"/>
     </g>
    </g>
    <g id="line2d_24">
     <path d="M 693.546875 140.930938 
L 703.546875 140.930938 
L 713.546875 140.930938 
" style="fill: none; stroke: #9467bd; stroke-width: 1.5; stroke-linecap: square"/>
     <g>
      <use xlink:href="#ma2d11ccec6" x="703.546875" y="140.930938" style="fill: #9467bd; stroke: #9467bd"/>
     </g>
    </g>
    <g id="text_21">
     <!-- B=16250 -->
     <g transform="translate(721.546875 144.430938) scale(0.1 -0.1)">
      <use xlink:href="#DejaVuSans-42"/>
      <use xlink:href="#DejaVuSans-3d" x="68.603516"/>
      <use xlink:href="#DejaVuSans-31" x="152.392578"/>
      <use xlink:href="#DejaVuSans-36" x="216.015625"/>
      <use xlink:href="#DejaVuSans-32" x="279.638672"/>
      <use xlink:href="#DejaVuSans-35" x="343.261719"/>
      <use xlink:href="#DejaVuSans-30" x="406.884766"/>
     </g>
    </g>
    <g id="line2d_25">
     <path d="M 693.546875 155.609063 
L 703.546875 155.609063 
L 713.546875 155.609063 
" style="fill: none; stroke: #8c564b; stroke-width: 1.5; stroke-linecap: square"/>
     <g>
      <use xlink:href="#mc55d9f9317" x="703.546875" y="155.609063" style="fill: #8c564b; stroke: #8c564b"/>
     </g>
    </g>
    <g id="text_22">
     <!-- B=20250 -->
     <g transform="translate(721.546875 159.109063) scale(0.1 -0.1)">
      <use xlink:href="#DejaVuSans-42"/>
      <use xlink:href="#DejaVuSans-3d" x="68.603516"/>
      <use xlink:href="#DejaVuSans-32" x="152.392578"/>
      <use xlink:href="#DejaVuSans-30" x="216.015625"/>
      <use xlink:href="#DejaVuSans-32" x="279.638672"/>
      <use xlink:href="#DejaVuSans-35" x="343.261719"/>
      <use xlink:href="#DejaVuSans-30" x="406.884766"/>
     </g>
    </g>
   </g>
  </g>
 </g>
 <defs>
  <clipPath id="padbcb0acb2">
   <rect x="108" y="69.12" width="669.6" height="443.52"/>
  </clipPath>
 </defs>
</svg>
